<?xml version="1.0" encoding="utf-8"?>
<svg xmlns="http://www.w3.org/2000/svg" xmlns:xlink="http://www.w3.org/1999/xlink" width="600" height="400" viewBox="0 0 2400 1600">
<defs>
  <clipPath id="clip600">
    <rect x="0" y="0" width="2400" height="1600"/>
  </clipPath>
</defs>
<path clip-path="url(#clip600)" d="M0 1600 L2400 1600 L2400 0 L0 0  Z" fill="#ffffff" fill-rule="evenodd" fill-opacity="1"/>
<defs>
  <clipPath id="clip601">
    <rect x="480" y="0" width="1681" height="1600"/>
  </clipPath>
</defs>
<path clip-path="url(#clip600)" d="M276.876 1410.9 L2352.76 1410.9 L2352.76 47.2441 L276.876 47.2441  Z" fill="#ffffff" fill-rule="evenodd" fill-opacity="1"/>
<defs>
  <clipPath id="clip602">
    <rect x="276" y="47" width="2077" height="1365"/>
  </clipPath>
</defs>
<polyline clip-path="url(#clip602)" style="stroke:#000000; stroke-linecap:round; stroke-linejoin:round; stroke-width:2; stroke-opacity:0.1; fill:none" points="335.627,1410.9 335.627,47.2441 "/>
<polyline clip-path="url(#clip602)" style="stroke:#000000; stroke-linecap:round; stroke-linejoin:round; stroke-width:2; stroke-opacity:0.1; fill:none" points="1510.65,1410.9 1510.65,47.2441 "/>
<polyline clip-path="url(#clip602)" style="stroke:#000000; stroke-linecap:round; stroke-linejoin:round; stroke-width:2; stroke-opacity:0.1; fill:none" points="335.627,1410.9 335.627,47.2441 "/>
<polyline clip-path="url(#clip602)" style="stroke:#000000; stroke-linecap:round; stroke-linejoin:round; stroke-width:2; stroke-opacity:0.1; fill:none" points="1510.65,1410.9 1510.65,47.2441 "/>
<polyline clip-path="url(#clip602)" style="stroke:#000000; stroke-linecap:round; stroke-linejoin:round; stroke-width:2; stroke-opacity:0.1; fill:none" points="276.876,1168.41 2352.76,1168.41 "/>
<polyline clip-path="url(#clip602)" style="stroke:#000000; stroke-linecap:round; stroke-linejoin:round; stroke-width:2; stroke-opacity:0.1; fill:none" points="276.876,730.106 2352.76,730.106 "/>
<polyline clip-path="url(#clip602)" style="stroke:#000000; stroke-linecap:round; stroke-linejoin:round; stroke-width:2; stroke-opacity:0.1; fill:none" points="276.876,291.797 2352.76,291.797 "/>
<polyline clip-path="url(#clip602)" style="stroke:#000000; stroke-linecap:round; stroke-linejoin:round; stroke-width:2; stroke-opacity:0.1; fill:none" points="276.876,1168.41 2352.76,1168.41 "/>
<polyline clip-path="url(#clip602)" style="stroke:#000000; stroke-linecap:round; stroke-linejoin:round; stroke-width:2; stroke-opacity:0.1; fill:none" points="276.876,730.106 2352.76,730.106 "/>
<polyline clip-path="url(#clip602)" style="stroke:#000000; stroke-linecap:round; stroke-linejoin:round; stroke-width:2; stroke-opacity:0.1; fill:none" points="276.876,291.797 2352.76,291.797 "/>
<polyline clip-path="url(#clip600)" style="stroke:#000000; stroke-linecap:round; stroke-linejoin:round; stroke-width:4; stroke-opacity:1; fill:none" points="276.876,1410.9 2352.76,1410.9 "/>
<polyline clip-path="url(#clip600)" style="stroke:#000000; stroke-linecap:round; stroke-linejoin:round; stroke-width:4; stroke-opacity:1; fill:none" points="276.876,47.2441 2352.76,47.2441 "/>
<polyline clip-path="url(#clip600)" style="stroke:#000000; stroke-linecap:round; stroke-linejoin:round; stroke-width:4; stroke-opacity:1; fill:none" points="335.627,1410.9 335.627,1392 "/>
<polyline clip-path="url(#clip600)" style="stroke:#000000; stroke-linecap:round; stroke-linejoin:round; stroke-width:4; stroke-opacity:1; fill:none" points="1510.65,1410.9 1510.65,1392 "/>
<polyline clip-path="url(#clip600)" style="stroke:#000000; stroke-linecap:round; stroke-linejoin:round; stroke-width:4; stroke-opacity:1; fill:none" points="335.627,47.2441 335.627,66.1417 "/>
<polyline clip-path="url(#clip600)" style="stroke:#000000; stroke-linecap:round; stroke-linejoin:round; stroke-width:4; stroke-opacity:1; fill:none" points="1510.65,47.2441 1510.65,66.1417 "/>
<path clip-path="url(#clip600)" d="M285.507 1485.02 L293.146 1485.02 L293.146 1458.66 L284.836 1460.32 L284.836 1456.06 L293.1 1454.4 L297.775 1454.4 L297.775 1485.02 L305.414 1485.02 L305.414 1488.96 L285.507 1488.96 L285.507 1485.02 Z" fill="#000000" fill-rule="nonzero" fill-opacity="1" /><path clip-path="url(#clip600)" d="M324.859 1457.48 Q321.248 1457.48 319.419 1461.04 Q317.613 1464.58 317.613 1471.71 Q317.613 1478.82 319.419 1482.38 Q321.248 1485.92 324.859 1485.92 Q328.493 1485.92 330.298 1482.38 Q332.127 1478.82 332.127 1471.71 Q332.127 1464.58 330.298 1461.04 Q328.493 1457.48 324.859 1457.48 M324.859 1453.77 Q330.669 1453.77 333.724 1458.38 Q336.803 1462.96 336.803 1471.71 Q336.803 1480.44 333.724 1485.04 Q330.669 1489.63 324.859 1489.63 Q319.049 1489.63 315.97 1485.04 Q312.914 1480.44 312.914 1471.71 Q312.914 1462.96 315.97 1458.38 Q319.049 1453.77 324.859 1453.77 Z" fill="#000000" fill-rule="nonzero" fill-opacity="1" /><path clip-path="url(#clip600)" d="M336.803 1447.87 L360.915 1447.87 L360.915 1451.07 L336.803 1451.07 L336.803 1447.87 Z" fill="#000000" fill-rule="nonzero" fill-opacity="1" /><path clip-path="url(#clip600)" d="M380.625 1446.41 Q383.352 1446.99 384.876 1448.83 Q386.418 1450.68 386.418 1453.38 Q386.418 1457.54 383.559 1459.82 Q380.7 1462.09 375.434 1462.09 Q373.666 1462.09 371.786 1461.73 Q369.924 1461.4 367.93 1460.7 L367.93 1457.03 Q369.51 1457.95 371.391 1458.42 Q373.271 1458.89 375.321 1458.89 Q378.895 1458.89 380.757 1457.48 Q382.638 1456.07 382.638 1453.38 Q382.638 1450.9 380.888 1449.51 Q379.158 1448.1 376.055 1448.1 L372.782 1448.1 L372.782 1444.98 L376.205 1444.98 Q379.008 1444.98 380.493 1443.87 Q381.979 1442.74 381.979 1440.63 Q381.979 1438.47 380.437 1437.32 Q378.914 1436.16 376.055 1436.16 Q374.494 1436.16 372.707 1436.49 Q370.92 1436.83 368.776 1437.55 L368.776 1434.16 Q370.939 1433.56 372.82 1433.26 Q374.72 1432.96 376.393 1432.96 Q380.719 1432.96 383.239 1434.93 Q385.76 1436.89 385.76 1440.24 Q385.76 1442.57 384.424 1444.19 Q383.089 1445.79 380.625 1446.41 Z" fill="#000000" fill-rule="nonzero" fill-opacity="1" /><path clip-path="url(#clip600)" d="M1475.64 1485.02 L1483.28 1485.02 L1483.28 1458.66 L1474.97 1460.32 L1474.97 1456.06 L1483.23 1454.4 L1487.9 1454.4 L1487.9 1485.02 L1495.54 1485.02 L1495.54 1488.96 L1475.64 1488.96 L1475.64 1485.02 Z" fill="#000000" fill-rule="nonzero" fill-opacity="1" /><path clip-path="url(#clip600)" d="M1514.99 1457.48 Q1511.38 1457.48 1509.55 1461.04 Q1507.74 1464.58 1507.74 1471.71 Q1507.74 1478.82 1509.55 1482.38 Q1511.38 1485.92 1514.99 1485.92 Q1518.62 1485.92 1520.43 1482.38 Q1522.26 1478.82 1522.26 1471.71 Q1522.26 1464.58 1520.43 1461.04 Q1518.62 1457.48 1514.99 1457.48 M1514.99 1453.77 Q1520.8 1453.77 1523.85 1458.38 Q1526.93 1462.96 1526.93 1471.71 Q1526.93 1480.44 1523.85 1485.04 Q1520.8 1489.63 1514.99 1489.63 Q1509.18 1489.63 1506.1 1485.04 Q1503.04 1480.44 1503.04 1471.71 Q1503.04 1462.96 1506.1 1458.38 Q1509.18 1453.77 1514.99 1453.77 Z" fill="#000000" fill-rule="nonzero" fill-opacity="1" /><path clip-path="url(#clip600)" d="M1536.64 1435.97 Q1533.7 1435.97 1532.22 1438.86 Q1530.75 1441.74 1530.75 1447.53 Q1530.75 1453.31 1532.22 1456.2 Q1533.7 1459.08 1536.64 1459.08 Q1539.59 1459.08 1541.06 1456.2 Q1542.54 1453.31 1542.54 1447.53 Q1542.54 1441.74 1541.06 1438.86 Q1539.59 1435.97 1536.64 1435.97 M1536.64 1432.96 Q1541.36 1432.96 1543.84 1436.7 Q1546.34 1440.43 1546.34 1447.53 Q1546.34 1454.62 1543.84 1458.37 Q1541.36 1462.09 1536.64 1462.09 Q1531.92 1462.09 1529.41 1458.37 Q1526.93 1454.62 1526.93 1447.53 Q1526.93 1440.43 1529.41 1436.7 Q1531.92 1432.96 1536.64 1432.96 Z" fill="#000000" fill-rule="nonzero" fill-opacity="1" /><path clip-path="url(#clip600)" d="M1150.61 1526.67 L1177.92 1526.67 L1177.92 1532.08 L1157.04 1532.08 L1157.04 1546.08 L1175.88 1546.08 L1175.88 1551.49 L1157.04 1551.49 L1157.04 1574.19 L1150.61 1574.19 L1150.61 1526.67 Z" fill="#000000" fill-rule="nonzero" fill-opacity="1" /><path clip-path="url(#clip600)" d="M1203.77 1544.01 Q1202.78 1543.44 1201.6 1543.18 Q1200.46 1542.9 1199.06 1542.9 Q1194.09 1542.9 1191.42 1546.14 Q1188.77 1549.36 1188.77 1555.41 L1188.77 1574.19 L1182.89 1574.19 L1182.89 1538.54 L1188.77 1538.54 L1188.77 1544.08 Q1190.62 1540.83 1193.58 1539.27 Q1196.54 1537.68 1200.77 1537.68 Q1201.38 1537.68 1202.11 1537.77 Q1202.84 1537.84 1203.73 1538 L1203.77 1544.01 Z" fill="#000000" fill-rule="nonzero" fill-opacity="1" /><path clip-path="url(#clip600)" d="M1238.97 1554.9 L1238.97 1557.76 L1212.04 1557.76 Q1212.42 1563.81 1215.67 1566.99 Q1218.95 1570.14 1224.77 1570.14 Q1228.15 1570.14 1231.3 1569.32 Q1234.48 1568.49 1237.6 1566.83 L1237.6 1572.37 Q1234.45 1573.71 1231.14 1574.41 Q1227.83 1575.11 1224.42 1575.11 Q1215.89 1575.11 1210.9 1570.14 Q1205.93 1565.18 1205.93 1556.71 Q1205.93 1547.96 1210.64 1542.83 Q1215.38 1537.68 1223.4 1537.68 Q1230.6 1537.68 1234.77 1542.33 Q1238.97 1546.94 1238.97 1554.9 M1233.11 1553.18 Q1233.05 1548.37 1230.41 1545.51 Q1227.8 1542.64 1223.47 1542.64 Q1218.57 1542.64 1215.61 1545.41 Q1212.68 1548.18 1212.23 1553.21 L1233.11 1553.18 Z" fill="#000000" fill-rule="nonzero" fill-opacity="1" /><path clip-path="url(#clip600)" d="M1252.08 1556.39 Q1252.08 1562.85 1254.72 1566.55 Q1257.4 1570.21 1262.04 1570.21 Q1266.69 1570.21 1269.36 1566.55 Q1272.04 1562.85 1272.04 1556.39 Q1272.04 1549.93 1269.36 1546.27 Q1266.69 1542.58 1262.04 1542.58 Q1257.4 1542.58 1254.72 1546.27 Q1252.08 1549.93 1252.08 1556.39 M1272.04 1568.84 Q1270.19 1572.02 1267.36 1573.58 Q1264.56 1575.11 1260.61 1575.11 Q1254.15 1575.11 1250.08 1569.95 Q1246.03 1564.8 1246.03 1556.39 Q1246.03 1547.99 1250.08 1542.83 Q1254.15 1537.68 1260.61 1537.68 Q1264.56 1537.68 1267.36 1539.24 Q1270.19 1540.77 1272.04 1543.95 L1272.04 1538.54 L1277.89 1538.54 L1277.89 1587.74 L1272.04 1587.74 L1272.04 1568.84 Z" fill="#000000" fill-rule="nonzero" fill-opacity="1" /><path clip-path="url(#clip600)" d="M1289.35 1560.12 L1289.35 1538.54 L1295.21 1538.54 L1295.21 1559.89 Q1295.21 1564.96 1297.18 1567.5 Q1299.16 1570.02 1303.1 1570.02 Q1307.85 1570.02 1310.58 1566.99 Q1313.35 1563.97 1313.35 1558.75 L1313.35 1538.54 L1319.21 1538.54 L1319.21 1574.19 L1313.35 1574.19 L1313.35 1568.71 Q1311.22 1571.96 1308.39 1573.55 Q1305.59 1575.11 1301.86 1575.11 Q1295.72 1575.11 1292.54 1571.29 Q1289.35 1567.47 1289.35 1560.12 M1304.09 1537.68 L1304.09 1537.68 Z" fill="#000000" fill-rule="nonzero" fill-opacity="1" /><path clip-path="url(#clip600)" d="M1361.76 1554.9 L1361.76 1557.76 L1334.84 1557.76 Q1335.22 1563.81 1338.46 1566.99 Q1341.74 1570.14 1347.57 1570.14 Q1350.94 1570.14 1354.09 1569.32 Q1357.27 1568.49 1360.39 1566.83 L1360.39 1572.37 Q1357.24 1573.71 1353.93 1574.41 Q1350.62 1575.11 1347.22 1575.11 Q1338.69 1575.11 1333.69 1570.14 Q1328.72 1565.18 1328.72 1556.71 Q1328.72 1547.96 1333.44 1542.83 Q1338.18 1537.68 1346.2 1537.68 Q1353.39 1537.68 1357.56 1542.33 Q1361.76 1546.94 1361.76 1554.9 M1355.91 1553.18 Q1355.84 1548.37 1353.2 1545.51 Q1350.59 1542.64 1346.26 1542.64 Q1341.36 1542.64 1338.4 1545.41 Q1335.47 1548.18 1335.03 1553.21 L1355.91 1553.18 Z" fill="#000000" fill-rule="nonzero" fill-opacity="1" /><path clip-path="url(#clip600)" d="M1401.01 1552.67 L1401.01 1574.19 L1395.15 1574.19 L1395.15 1552.86 Q1395.15 1547.8 1393.18 1545.29 Q1391.2 1542.77 1387.26 1542.77 Q1382.51 1542.77 1379.78 1545.79 Q1377.04 1548.82 1377.04 1554.04 L1377.04 1574.19 L1371.15 1574.19 L1371.15 1538.54 L1377.04 1538.54 L1377.04 1544.08 Q1379.14 1540.86 1381.97 1539.27 Q1384.84 1537.68 1388.56 1537.68 Q1394.71 1537.68 1397.86 1541.5 Q1401.01 1545.29 1401.01 1552.67 Z" fill="#000000" fill-rule="nonzero" fill-opacity="1" /><path clip-path="url(#clip600)" d="M1438.34 1539.91 L1438.34 1545.38 Q1435.86 1544.01 1433.35 1543.34 Q1430.86 1542.64 1428.32 1542.64 Q1422.62 1542.64 1419.47 1546.27 Q1416.32 1549.87 1416.32 1556.39 Q1416.32 1562.92 1419.47 1566.55 Q1422.62 1570.14 1428.32 1570.14 Q1430.86 1570.14 1433.35 1569.47 Q1435.86 1568.77 1438.34 1567.41 L1438.34 1572.82 Q1435.89 1573.96 1433.25 1574.54 Q1430.64 1575.11 1427.68 1575.11 Q1419.63 1575.11 1414.88 1570.05 Q1410.14 1564.99 1410.14 1556.39 Q1410.14 1547.67 1414.92 1542.68 Q1419.72 1537.68 1428.06 1537.68 Q1430.77 1537.68 1433.35 1538.25 Q1435.92 1538.79 1438.34 1539.91 Z" fill="#000000" fill-rule="nonzero" fill-opacity="1" /><path clip-path="url(#clip600)" d="M1463.36 1577.5 Q1460.88 1583.86 1458.52 1585.8 Q1456.17 1587.74 1452.22 1587.74 L1447.54 1587.74 L1447.54 1582.84 L1450.98 1582.84 Q1453.4 1582.84 1454.73 1581.7 Q1456.07 1580.55 1457.69 1576.29 L1458.74 1573.61 L1444.33 1538.54 L1450.53 1538.54 L1461.67 1566.42 L1472.81 1538.54 L1479.02 1538.54 L1463.36 1577.5 Z" fill="#000000" fill-rule="nonzero" fill-opacity="1" /><polyline clip-path="url(#clip600)" style="stroke:#000000; stroke-linecap:round; stroke-linejoin:round; stroke-width:4; stroke-opacity:1; fill:none" points="276.876,1410.9 276.876,47.2441 "/>
<polyline clip-path="url(#clip600)" style="stroke:#000000; stroke-linecap:round; stroke-linejoin:round; stroke-width:4; stroke-opacity:1; fill:none" points="2352.76,1410.9 2352.76,47.2441 "/>
<polyline clip-path="url(#clip600)" style="stroke:#000000; stroke-linecap:round; stroke-linejoin:round; stroke-width:4; stroke-opacity:1; fill:none" points="276.876,1168.41 295.773,1168.41 "/>
<polyline clip-path="url(#clip600)" style="stroke:#000000; stroke-linecap:round; stroke-linejoin:round; stroke-width:4; stroke-opacity:1; fill:none" points="276.876,730.106 295.773,730.106 "/>
<polyline clip-path="url(#clip600)" style="stroke:#000000; stroke-linecap:round; stroke-linejoin:round; stroke-width:4; stroke-opacity:1; fill:none" points="276.876,291.797 295.773,291.797 "/>
<polyline clip-path="url(#clip600)" style="stroke:#000000; stroke-linecap:round; stroke-linejoin:round; stroke-width:4; stroke-opacity:1; fill:none" points="2352.76,1168.41 2333.86,1168.41 "/>
<polyline clip-path="url(#clip600)" style="stroke:#000000; stroke-linecap:round; stroke-linejoin:round; stroke-width:4; stroke-opacity:1; fill:none" points="2352.76,730.106 2333.86,730.106 "/>
<polyline clip-path="url(#clip600)" style="stroke:#000000; stroke-linecap:round; stroke-linejoin:round; stroke-width:4; stroke-opacity:1; fill:none" points="2352.76,291.797 2333.86,291.797 "/>
<path clip-path="url(#clip600)" d="M114.931 1188.21 L122.57 1188.21 L122.57 1161.84 L114.26 1163.51 L114.26 1159.25 L122.524 1157.58 L127.2 1157.58 L127.2 1188.21 L134.839 1188.21 L134.839 1192.14 L114.931 1192.14 L114.931 1188.21 Z" fill="#000000" fill-rule="nonzero" fill-opacity="1" /><path clip-path="url(#clip600)" d="M154.283 1160.66 Q150.672 1160.66 148.843 1164.23 Q147.038 1167.77 147.038 1174.9 Q147.038 1182 148.843 1185.57 Q150.672 1189.11 154.283 1189.11 Q157.917 1189.11 159.723 1185.57 Q161.552 1182 161.552 1174.9 Q161.552 1167.77 159.723 1164.23 Q157.917 1160.66 154.283 1160.66 M154.283 1156.96 Q160.093 1156.96 163.149 1161.56 Q166.227 1166.15 166.227 1174.9 Q166.227 1183.62 163.149 1188.23 Q160.093 1192.81 154.283 1192.81 Q148.473 1192.81 145.394 1188.23 Q142.339 1183.62 142.339 1174.9 Q142.339 1166.15 145.394 1161.56 Q148.473 1156.96 154.283 1156.96 Z" fill="#000000" fill-rule="nonzero" fill-opacity="1" /><path clip-path="url(#clip600)" d="M166.227 1151.06 L190.339 1151.06 L190.339 1154.26 L166.227 1154.26 L166.227 1151.06 Z" fill="#000000" fill-rule="nonzero" fill-opacity="1" /><path clip-path="url(#clip600)" d="M199.197 1161.53 L205.404 1161.53 L205.404 1140.11 L198.652 1141.47 L198.652 1138.01 L205.366 1136.65 L209.166 1136.65 L209.166 1161.53 L215.372 1161.53 L215.372 1164.73 L199.197 1164.73 L199.197 1161.53 Z" fill="#000000" fill-rule="nonzero" fill-opacity="1" /><path clip-path="url(#clip600)" d="M231.171 1139.15 Q228.237 1139.15 226.751 1142.05 Q225.284 1144.93 225.284 1150.72 Q225.284 1156.49 226.751 1159.39 Q228.237 1162.27 231.171 1162.27 Q234.124 1162.27 235.591 1159.39 Q237.076 1156.49 237.076 1150.72 Q237.076 1144.93 235.591 1142.05 Q234.124 1139.15 231.171 1139.15 M231.171 1136.14 Q235.891 1136.14 238.374 1139.89 Q240.876 1143.61 240.876 1150.72 Q240.876 1157.81 238.374 1161.55 Q235.891 1165.28 231.171 1165.28 Q226.45 1165.28 223.949 1161.55 Q221.466 1157.81 221.466 1150.72 Q221.466 1143.61 223.949 1139.89 Q226.45 1136.14 231.171 1136.14 Z" fill="#000000" fill-rule="nonzero" fill-opacity="1" /><path clip-path="url(#clip600)" d="M140.247 749.898 L147.886 749.898 L147.886 723.532 L139.575 725.199 L139.575 720.94 L147.839 719.273 L152.515 719.273 L152.515 749.898 L160.154 749.898 L160.154 753.833 L140.247 753.833 L140.247 749.898 Z" fill="#000000" fill-rule="nonzero" fill-opacity="1" /><path clip-path="url(#clip600)" d="M179.598 722.352 Q175.987 722.352 174.159 725.917 Q172.353 729.458 172.353 736.588 Q172.353 743.694 174.159 747.259 Q175.987 750.801 179.598 750.801 Q183.233 750.801 185.038 747.259 Q186.867 743.694 186.867 736.588 Q186.867 729.458 185.038 725.917 Q183.233 722.352 179.598 722.352 M179.598 718.648 Q185.409 718.648 188.464 723.255 Q191.543 727.838 191.543 736.588 Q191.543 745.315 188.464 749.921 Q185.409 754.505 179.598 754.505 Q173.788 754.505 170.71 749.921 Q167.654 745.315 167.654 736.588 Q167.654 727.838 170.71 723.255 Q173.788 718.648 179.598 718.648 Z" fill="#000000" fill-rule="nonzero" fill-opacity="1" /><path clip-path="url(#clip600)" d="M191.543 712.75 L215.654 712.75 L215.654 715.947 L191.543 715.947 L191.543 712.75 Z" fill="#000000" fill-rule="nonzero" fill-opacity="1" /><path clip-path="url(#clip600)" d="M223.892 698.343 L238.807 698.343 L238.807 701.54 L227.372 701.54 L227.372 708.424 Q228.199 708.142 229.027 708.01 Q229.854 707.86 230.682 707.86 Q235.384 707.86 238.13 710.436 Q240.876 713.013 240.876 717.414 Q240.876 721.947 238.054 724.467 Q235.233 726.968 230.099 726.968 Q228.331 726.968 226.488 726.667 Q224.663 726.366 222.707 725.765 L222.707 721.947 Q224.4 722.868 226.205 723.32 Q228.011 723.771 230.023 723.771 Q233.277 723.771 235.177 722.059 Q237.076 720.348 237.076 717.414 Q237.076 714.48 235.177 712.768 Q233.277 711.057 230.023 711.057 Q228.5 711.057 226.977 711.395 Q225.472 711.734 223.892 712.449 L223.892 698.343 Z" fill="#000000" fill-rule="nonzero" fill-opacity="1" /><path clip-path="url(#clip600)" d="M170.17 311.589 L177.809 311.589 L177.809 285.224 L169.499 286.891 L169.499 282.631 L177.762 280.965 L182.438 280.965 L182.438 311.589 L190.077 311.589 L190.077 315.525 L170.17 315.525 L170.17 311.589 Z" fill="#000000" fill-rule="nonzero" fill-opacity="1" /><path clip-path="url(#clip600)" d="M209.522 284.043 Q205.91 284.043 204.082 287.608 Q202.276 291.15 202.276 298.279 Q202.276 305.386 204.082 308.951 Q205.91 312.492 209.522 312.492 Q213.156 312.492 214.961 308.951 Q216.79 305.386 216.79 298.279 Q216.79 291.15 214.961 287.608 Q213.156 284.043 209.522 284.043 M209.522 280.34 Q215.332 280.34 218.387 284.946 Q221.466 289.529 221.466 298.279 Q221.466 307.006 218.387 311.613 Q215.332 316.196 209.522 316.196 Q203.711 316.196 200.633 311.613 Q197.577 307.006 197.577 298.279 Q197.577 289.529 200.633 284.946 Q203.711 280.34 209.522 280.34 Z" fill="#000000" fill-rule="nonzero" fill-opacity="1" /><path clip-path="url(#clip600)" d="M231.171 262.536 Q228.237 262.536 226.751 265.432 Q225.284 268.31 225.284 274.102 Q225.284 279.876 226.751 282.773 Q228.237 285.65 231.171 285.65 Q234.124 285.65 235.591 282.773 Q237.076 279.876 237.076 274.102 Q237.076 268.31 235.591 265.432 Q234.124 262.536 231.171 262.536 M231.171 259.526 Q235.891 259.526 238.374 263.269 Q240.876 266.993 240.876 274.102 Q240.876 281.193 238.374 284.936 Q235.891 288.66 231.171 288.66 Q226.45 288.66 223.949 284.936 Q221.466 281.193 221.466 274.102 Q221.466 266.993 223.949 263.269 Q226.45 259.526 231.171 259.526 Z" fill="#000000" fill-rule="nonzero" fill-opacity="1" /><path clip-path="url(#clip600)" d="M21.7677 1119.57 L39.6235 1119.57 L39.6235 1111.49 Q39.6235 1107 37.3 1104.55 Q34.9765 1102.1 30.6797 1102.1 Q26.4147 1102.1 24.0912 1104.55 Q21.7677 1107 21.7677 1111.49 L21.7677 1119.57 M16.4842 1126 L16.4842 1111.49 Q16.4842 1103.5 20.1126 1099.43 Q23.7092 1095.32 30.6797 1095.32 Q37.7138 1095.32 41.3104 1099.43 Q44.907 1103.5 44.907 1111.49 L44.907 1119.57 L64.0042 1119.57 L64.0042 1126 L16.4842 1126 Z" fill="#000000" fill-rule="nonzero" fill-opacity="1" /><path clip-path="url(#clip600)" d="M32.4621 1075.46 Q32.4621 1080.17 36.1542 1082.91 Q39.8145 1085.65 46.212 1085.65 Q52.6095 1085.65 56.3017 1082.94 Q59.9619 1080.2 59.9619 1075.46 Q59.9619 1070.78 56.2698 1068.04 Q52.5777 1065.31 46.212 1065.31 Q39.8781 1065.31 36.186 1068.04 Q32.4621 1070.78 32.4621 1075.46 M27.4968 1075.46 Q27.4968 1067.82 32.4621 1063.46 Q37.4273 1059.1 46.212 1059.1 Q54.9649 1059.1 59.9619 1063.46 Q64.9272 1067.82 64.9272 1075.46 Q64.9272 1083.13 59.9619 1087.49 Q54.9649 1091.82 46.212 1091.82 Q37.4273 1091.82 32.4621 1087.49 Q27.4968 1083.13 27.4968 1075.46 Z" fill="#000000" fill-rule="nonzero" fill-opacity="1" /><path clip-path="url(#clip600)" d="M28.3562 1052.8 L28.3562 1046.94 L56.1743 1039.62 L28.3562 1032.33 L28.3562 1025.43 L56.1743 1018.11 L28.3562 1010.82 L28.3562 1004.96 L64.0042 1014.29 L64.0042 1021.19 L34.7856 1028.86 L64.0042 1036.57 L64.0042 1043.47 L28.3562 1052.8 Z" fill="#000000" fill-rule="nonzero" fill-opacity="1" /><path clip-path="url(#clip600)" d="M44.7161 965.588 L47.5806 965.588 L47.5806 992.515 Q53.6281 992.133 56.8109 988.887 Q59.9619 985.608 59.9619 979.784 Q59.9619 976.41 59.1344 973.259 Q58.3069 970.076 56.6518 966.957 L62.1899 966.957 Q63.5267 970.108 64.227 973.418 Q64.9272 976.728 64.9272 980.134 Q64.9272 988.664 59.9619 993.661 Q54.9967 998.626 46.5303 998.626 Q37.7774 998.626 32.6531 993.916 Q27.4968 989.173 27.4968 981.152 Q27.4968 973.959 32.1438 969.79 Q36.7589 965.588 44.7161 965.588 M42.9973 971.445 Q38.1912 971.508 35.3266 974.15 Q32.4621 976.76 32.4621 981.089 Q32.4621 985.99 35.2312 988.95 Q38.0002 991.879 43.0292 992.324 L42.9973 971.445 Z" fill="#000000" fill-rule="nonzero" fill-opacity="1" /><path clip-path="url(#clip600)" d="M33.8307 935.319 Q33.2578 936.306 33.0032 937.484 Q32.7167 938.629 32.7167 940.03 Q32.7167 944.995 35.9632 947.669 Q39.1779 950.311 45.2253 950.311 L64.0042 950.311 L64.0042 956.199 L28.3562 956.199 L28.3562 950.311 L33.8944 950.311 Q30.6479 948.464 29.0883 945.504 Q27.4968 942.544 27.4968 938.311 Q27.4968 937.706 27.5923 936.974 Q27.656 936.242 27.8151 935.351 L33.8307 935.319 Z" fill="#000000" fill-rule="nonzero" fill-opacity="1" /><path clip-path="url(#clip600)" d="M18.0438 879.715 L24.314 879.715 Q22.5634 883.375 21.704 886.622 Q20.8447 889.868 20.8447 892.892 Q20.8447 898.144 22.8817 901.008 Q24.9187 903.841 28.6745 903.841 Q31.8255 903.841 33.4488 901.963 Q35.0402 900.053 36.0269 894.77 L36.8226 890.887 Q38.1912 883.693 41.6605 880.288 Q45.098 876.85 50.8908 876.85 Q57.7976 876.85 61.3624 881.497 Q64.9272 886.112 64.9272 895.056 Q64.9272 898.43 64.1633 902.249 Q63.3994 906.037 61.9035 910.111 L55.2831 910.111 Q57.4793 906.196 58.5933 902.44 Q59.7073 898.685 59.7073 895.056 Q59.7073 889.55 57.543 886.558 Q55.3786 883.566 51.3682 883.566 Q47.8671 883.566 45.8937 885.73 Q43.9204 887.863 42.9337 892.765 L42.1698 896.679 Q40.7375 903.873 37.682 907.087 Q34.6264 910.302 29.1837 910.302 Q22.8817 910.302 19.2532 905.878 Q15.6248 901.422 15.6248 893.624 Q15.6248 890.282 16.2295 886.813 Q16.8343 883.343 18.0438 879.715 Z" fill="#000000" fill-rule="nonzero" fill-opacity="1" /><path clip-path="url(#clip600)" d="M58.657 861.413 L77.5631 861.413 L77.5631 867.302 L28.3562 867.302 L28.3562 861.413 L33.7671 861.413 Q30.5842 859.567 29.0564 856.766 Q27.4968 853.934 27.4968 850.019 Q27.4968 843.526 32.6531 839.484 Q37.8093 835.409 46.212 835.409 Q54.6147 835.409 59.771 839.484 Q64.9272 843.526 64.9272 850.019 Q64.9272 853.934 63.3994 856.766 Q61.8398 859.567 58.657 861.413 M46.212 841.489 Q39.7508 841.489 36.0905 844.162 Q32.3984 846.804 32.3984 851.451 Q32.3984 856.098 36.0905 858.772 Q39.7508 861.413 46.212 861.413 Q52.6732 861.413 56.3653 858.772 Q60.0256 856.098 60.0256 851.451 Q60.0256 846.804 56.3653 844.162 Q52.6732 841.489 46.212 841.489 Z" fill="#000000" fill-rule="nonzero" fill-opacity="1" /><path clip-path="url(#clip600)" d="M44.7161 795.21 L47.5806 795.21 L47.5806 822.137 Q53.6281 821.755 56.8109 818.509 Q59.9619 815.23 59.9619 809.406 Q59.9619 806.032 59.1344 802.881 Q58.3069 799.698 56.6518 796.579 L62.1899 796.579 Q63.5267 799.73 64.227 803.04 Q64.9272 806.35 64.9272 809.756 Q64.9272 818.286 59.9619 823.283 Q54.9967 828.248 46.5303 828.248 Q37.7774 828.248 32.6531 823.537 Q27.4968 818.795 27.4968 810.774 Q27.4968 803.581 32.1438 799.411 Q36.7589 795.21 44.7161 795.21 M42.9973 801.067 Q38.1912 801.13 35.3266 803.772 Q32.4621 806.382 32.4621 810.711 Q32.4621 815.612 35.2312 818.572 Q38.0002 821.5 43.0292 821.946 L42.9973 801.067 Z" fill="#000000" fill-rule="nonzero" fill-opacity="1" /><path clip-path="url(#clip600)" d="M29.7248 759.944 L35.1993 759.944 Q33.8307 762.427 33.1623 764.941 Q32.4621 767.424 32.4621 769.97 Q32.4621 775.667 36.0905 778.818 Q39.6872 781.969 46.212 781.969 Q52.7369 781.969 56.3653 778.818 Q59.9619 775.667 59.9619 769.97 Q59.9619 767.424 59.2935 764.941 Q58.5933 762.427 57.2247 759.944 L62.6355 759.944 Q63.7814 762.395 64.3543 765.037 Q64.9272 767.647 64.9272 770.607 Q64.9272 778.659 59.8664 783.402 Q54.8057 788.144 46.212 788.144 Q37.491 788.144 32.4939 783.37 Q27.4968 778.564 27.4968 770.225 Q27.4968 767.519 28.0697 764.941 Q28.6108 762.363 29.7248 759.944 Z" fill="#000000" fill-rule="nonzero" fill-opacity="1" /><path clip-path="url(#clip600)" d="M18.2347 743.966 L28.3562 743.966 L28.3562 731.903 L32.9077 731.903 L32.9077 743.966 L52.2594 743.966 Q56.6199 743.966 57.8613 742.788 Q59.1026 741.579 59.1026 737.919 L59.1026 731.903 L64.0042 731.903 L64.0042 737.919 Q64.0042 744.698 61.4897 747.276 Q58.9434 749.854 52.2594 749.854 L32.9077 749.854 L32.9077 754.151 L28.3562 754.151 L28.3562 749.854 L18.2347 749.854 L18.2347 743.966 Z" fill="#000000" fill-rule="nonzero" fill-opacity="1" /><path clip-path="url(#clip600)" d="M33.8307 703.544 Q33.2578 704.531 33.0032 705.708 Q32.7167 706.854 32.7167 708.255 Q32.7167 713.22 35.9632 715.893 Q39.1779 718.535 45.2253 718.535 L64.0042 718.535 L64.0042 724.423 L28.3562 724.423 L28.3562 718.535 L33.8944 718.535 Q30.6479 716.689 29.0883 713.729 Q27.4968 710.769 27.4968 706.536 Q27.4968 705.931 27.5923 705.199 Q27.656 704.467 27.8151 703.576 L33.8307 703.544 Z" fill="#000000" fill-rule="nonzero" fill-opacity="1" /><path clip-path="url(#clip600)" d="M49.9359 698.006 L28.3562 698.006 L28.3562 692.149 L49.7131 692.149 Q54.7739 692.149 57.3202 690.176 Q59.8346 688.203 59.8346 684.256 Q59.8346 679.513 56.8109 676.776 Q53.7872 674.007 48.5673 674.007 L28.3562 674.007 L28.3562 668.151 L64.0042 668.151 L64.0042 674.007 L58.5296 674.007 Q61.7762 676.14 63.3676 678.972 Q64.9272 681.773 64.9272 685.497 Q64.9272 691.64 61.1078 694.823 Q57.2883 698.006 49.9359 698.006 M27.4968 683.269 L27.4968 683.269 Z" fill="#000000" fill-rule="nonzero" fill-opacity="1" /><path clip-path="url(#clip600)" d="M35.1993 628.333 Q31.2526 626.137 29.3747 623.081 Q27.4968 620.026 27.4968 615.888 Q27.4968 610.318 31.4117 607.294 Q35.2948 604.271 42.4881 604.271 L64.0042 604.271 L64.0042 610.159 L42.679 610.159 Q37.5546 610.159 35.072 611.973 Q32.5894 613.787 32.5894 617.511 Q32.5894 622.063 35.6131 624.705 Q38.6368 627.346 43.8567 627.346 L64.0042 627.346 L64.0042 633.235 L42.679 633.235 Q37.5228 633.235 35.072 635.049 Q32.5894 636.863 32.5894 640.651 Q32.5894 645.139 35.6449 647.78 Q38.6686 650.422 43.8567 650.422 L64.0042 650.422 L64.0042 656.31 L28.3562 656.31 L28.3562 650.422 L33.8944 650.422 Q30.616 648.417 29.0564 645.616 Q27.4968 642.815 27.4968 638.964 Q27.4968 635.081 29.4702 632.375 Q31.4436 629.638 35.1993 628.333 Z" fill="#000000" fill-rule="nonzero" fill-opacity="1" /><path clip-path="url(#clip600)" d="M21.7677 565.185 L58.7206 565.185 L58.7206 557.419 Q58.7206 547.584 54.2646 543.033 Q49.8086 538.449 40.1964 538.449 Q30.6479 538.449 26.2237 543.033 Q21.7677 547.584 21.7677 557.419 L21.7677 565.185 M16.4842 571.615 L16.4842 558.406 Q16.4842 544.592 22.2451 538.131 Q27.9743 531.67 40.1964 531.67 Q52.4822 531.67 58.2432 538.163 Q64.0042 544.656 64.0042 558.406 L64.0042 571.615 L16.4842 571.615 Z" fill="#000000" fill-rule="nonzero" fill-opacity="1" /><path clip-path="url(#clip600)" d="M44.7161 491.184 L47.5806 491.184 L47.5806 518.111 Q53.6281 517.729 56.8109 514.482 Q59.9619 511.204 59.9619 505.379 Q59.9619 502.006 59.1344 498.855 Q58.3069 495.672 56.6518 492.553 L62.1899 492.553 Q63.5267 495.704 64.227 499.014 Q64.9272 502.324 64.9272 505.73 Q64.9272 514.26 59.9619 519.257 Q54.9967 524.222 46.5303 524.222 Q37.7774 524.222 32.6531 519.511 Q27.4968 514.769 27.4968 506.748 Q27.4968 499.555 32.1438 495.385 Q36.7589 491.184 44.7161 491.184 M42.9973 497.04 Q38.1912 497.104 35.3266 499.746 Q32.4621 502.356 32.4621 506.684 Q32.4621 511.586 35.2312 514.546 Q38.0002 517.474 43.0292 517.92 L42.9973 497.04 Z" fill="#000000" fill-rule="nonzero" fill-opacity="1" /><path clip-path="url(#clip600)" d="M42.4881 451.939 L64.0042 451.939 L64.0042 457.796 L42.679 457.796 Q37.6183 457.796 35.1038 459.769 Q32.5894 461.743 32.5894 465.689 Q32.5894 470.432 35.6131 473.169 Q38.6368 475.906 43.8567 475.906 L64.0042 475.906 L64.0042 481.794 L28.3562 481.794 L28.3562 475.906 L33.8944 475.906 Q30.6797 473.806 29.0883 470.973 Q27.4968 468.108 27.4968 464.384 Q27.4968 458.241 31.3163 455.09 Q35.1038 451.939 42.4881 451.939 Z" fill="#000000" fill-rule="nonzero" fill-opacity="1" /><path clip-path="url(#clip600)" d="M29.4065 417.533 L34.9447 417.533 Q33.6716 420.015 33.035 422.689 Q32.3984 425.363 32.3984 428.227 Q32.3984 432.588 33.7352 434.784 Q35.072 436.948 37.7456 436.948 Q39.7826 436.948 40.9603 435.388 Q42.1061 433.829 43.1565 429.118 L43.6021 427.113 Q44.9389 420.875 47.3897 418.265 Q49.8086 415.623 54.1691 415.623 Q59.1344 415.623 62.0308 419.57 Q64.9272 423.485 64.9272 430.36 Q64.9272 433.224 64.3543 436.343 Q63.8132 439.431 62.6992 442.868 L56.6518 442.868 Q58.3387 439.622 59.198 436.471 Q60.0256 433.32 60.0256 430.232 Q60.0256 426.095 58.6251 423.867 Q57.1929 421.639 54.6147 421.639 Q52.2276 421.639 50.9545 423.262 Q49.6813 424.853 48.5037 430.296 L48.0262 432.333 Q46.8804 437.776 44.5251 440.195 Q42.138 442.614 38.0002 442.614 Q32.9713 442.614 30.2341 439.049 Q27.4968 435.484 27.4968 428.927 Q27.4968 425.681 27.9743 422.816 Q28.4517 419.952 29.4065 417.533 Z" fill="#000000" fill-rule="nonzero" fill-opacity="1" /><path clip-path="url(#clip600)" d="M28.3562 406.297 L28.3562 400.441 L64.0042 400.441 L64.0042 406.297 L28.3562 406.297 M14.479 406.297 L14.479 400.441 L21.895 400.441 L21.895 406.297 L14.479 406.297 Z" fill="#000000" fill-rule="nonzero" fill-opacity="1" /><path clip-path="url(#clip600)" d="M18.2347 382.394 L28.3562 382.394 L28.3562 370.331 L32.9077 370.331 L32.9077 382.394 L52.2594 382.394 Q56.6199 382.394 57.8613 381.216 Q59.1026 380.007 59.1026 376.347 L59.1026 370.331 L64.0042 370.331 L64.0042 376.347 Q64.0042 383.126 61.4897 385.704 Q58.9434 388.282 52.2594 388.282 L32.9077 388.282 L32.9077 392.579 L28.3562 392.579 L28.3562 388.282 L18.2347 388.282 L18.2347 382.394 Z" fill="#000000" fill-rule="nonzero" fill-opacity="1" /><path clip-path="url(#clip600)" d="M67.3143 347.796 Q73.68 350.279 75.6216 352.634 Q77.5631 354.99 77.5631 358.936 L77.5631 363.615 L72.6615 363.615 L72.6615 360.178 Q72.6615 357.759 71.5157 356.422 Q70.3699 355.085 66.1048 353.462 L63.4312 352.412 L28.3562 366.83 L28.3562 360.623 L56.238 349.483 L28.3562 338.343 L28.3562 332.137 L67.3143 347.796 Z" fill="#000000" fill-rule="nonzero" fill-opacity="1" /><polyline clip-path="url(#clip602)" style="stroke:#009af9; stroke-linecap:round; stroke-linejoin:round; stroke-width:4; stroke-opacity:1; fill:none" points="335.627,85.838 337.587,86.3338 339.548,86.8296 341.508,87.3254 343.468,87.8212 345.429,88.317 347.389,88.8127 349.349,89.3085 351.31,89.8043 353.27,90.3001 355.23,90.7959 357.191,91.2917 359.151,91.7875 361.111,92.2832 363.072,92.779 365.032,93.2748 366.992,93.7706 368.953,94.2664 370.913,94.7622 372.873,95.258 374.834,95.7537 376.794,96.2495 378.754,96.7453 380.715,97.2411 382.675,97.7369 384.635,98.2327 386.596,98.7285 388.556,99.2242 390.516,99.72 392.477,100.216 394.437,100.712 396.397,101.207 398.358,101.703 400.318,102.199 402.278,102.695 404.239,103.191 406.199,103.686 408.159,104.182 410.12,104.678 412.08,105.174 414.04,105.669 416.001,106.165 417.961,106.661 419.921,107.157 421.882,107.653 423.842,108.148 425.802,108.644 427.763,109.14 429.723,109.636 431.683,110.132 433.644,110.627 435.604,111.123 437.564,111.619 439.525,112.115 441.485,112.61 443.445,113.106 445.406,113.602 447.366,114.098 449.326,114.594 451.287,115.089 453.247,115.585 455.207,116.081 457.168,116.577 459.128,117.073 461.088,117.568 463.049,118.064 465.009,118.56 466.969,119.056 468.93,119.552 470.89,120.047 472.851,120.543 474.811,121.039 476.771,121.535 478.732,122.03 480.692,122.526 482.652,123.022 484.613,123.518 486.573,124.014 488.533,124.509 490.494,125.005 492.454,125.501 494.414,125.997 496.375,126.493 498.335,126.988 500.295,127.484 502.256,127.98 504.216,128.476 506.176,128.972 508.137,129.467 510.097,129.963 512.057,130.459 514.018,130.955 515.978,131.451 517.938,131.946 519.899,132.442 521.859,132.938 523.819,133.434 525.78,133.93 527.74,134.425 529.7,134.921 531.661,135.417 533.621,135.913 535.581,136.409 537.542,136.904 539.502,137.4 541.462,137.896 543.423,138.392 545.383,138.888 547.343,139.383 549.304,139.879 551.264,140.375 553.224,140.871 555.185,141.367 557.145,141.862 559.105,142.358 561.066,142.854 563.026,143.35 564.986,143.846 566.947,144.342 568.907,144.837 570.867,145.333 572.828,145.829 574.788,146.325 576.748,146.821 578.709,147.316 580.669,147.812 582.629,148.308 584.59,148.804 586.55,149.3 588.51,149.796 590.471,150.291 592.431,150.787 594.391,151.283 596.352,151.779 598.312,152.275 600.272,152.771 602.233,153.267 604.193,153.762 606.153,154.258 608.114,154.754 610.074,155.25 612.035,155.746 613.995,156.242 615.955,156.738 617.916,157.233 619.876,157.729 621.836,158.225 623.797,158.721 625.757,159.217 627.717,159.713 629.678,160.209 631.638,160.705 633.598,161.2 635.559,161.696 637.519,162.192 639.479,162.688 641.44,163.184 643.4,163.68 645.36,164.176 647.321,164.672 649.281,165.168 651.241,165.664 653.202,166.16 655.162,166.656 657.122,167.152 659.083,167.648 661.043,168.144 663.003,168.64 664.964,169.135 666.924,169.631 668.884,170.127 670.845,170.623 672.805,171.12 674.765,171.616 676.726,172.112 678.686,172.608 680.646,173.104 682.607,173.6 684.567,174.096 686.527,174.592 688.488,175.088 690.448,175.584 692.408,176.08 694.369,176.576 696.329,177.072 698.289,177.569 700.25,178.065 702.21,178.561 704.17,179.057 706.131,179.553 708.091,180.05 710.051,180.546 712.012,181.042 713.972,181.538 715.932,182.035 717.893,182.531 719.853,183.027 721.813,183.524 723.774,184.02 725.734,184.516 727.694,185.013 729.655,185.509 731.615,186.006 733.575,186.502 735.536,186.999 737.496,187.495 739.456,187.992 741.417,188.488 743.377,188.985 745.337,189.481 747.298,189.978 749.258,190.475 751.219,190.972 753.179,191.468 755.139,191.965 757.1,192.462 759.06,192.959 761.02,193.456 762.981,193.953 764.941,194.45 766.901,194.947 768.862,195.444 770.822,195.941 772.782,196.438 774.743,196.935 776.703,197.433 778.663,197.93 780.624,198.427 782.584,198.925 784.544,199.422 786.505,199.92 788.465,200.418 790.425,200.915 792.386,201.413 794.346,201.911 796.306,202.409 798.267,202.907 800.227,203.405 802.187,203.903 804.148,204.402 806.108,204.9 808.068,205.398 810.029,205.897 811.989,206.396 813.949,206.894 815.91,207.393 817.87,207.892 819.83,208.391 821.791,208.89 823.751,209.39 825.711,209.889 827.672,210.389 829.632,210.889 831.592,211.388 833.553,211.888 835.513,212.389 837.473,212.889 839.434,213.389 841.394,213.89 843.354,214.391 845.315,214.892 847.275,215.393 849.235,215.895 851.196,216.396 853.156,216.898 855.116,217.4 857.077,217.902 859.037,218.405 860.997,218.908 862.958,219.411 864.918,219.914 866.878,220.417 868.839,220.921 870.799,221.425 872.759,221.93 874.72,222.434 876.68,222.939 878.64,223.445 880.601,223.95 882.561,224.456 884.522,224.963 886.482,225.47 888.442,225.977 890.403,226.484 892.363,226.992 894.323,227.501 896.284,228.01 898.244,228.519 900.204,229.029 902.165,229.54 904.125,230.05 906.085,230.562 908.046,231.074 910.006,231.587 911.966,232.1 913.927,232.614 915.887,233.128 917.847,233.643 919.808,234.159 921.768,234.676 923.728,235.193 925.689,235.711 927.649,236.23 929.609,236.749 931.57,237.27 933.53,237.791 935.49,238.314 937.451,238.837 939.411,239.361 941.371,239.886 943.332,240.413 945.292,240.94 947.252,241.468 949.213,241.998 951.173,242.529 953.133,243.061 955.094,243.594 957.054,244.129 959.014,244.665 960.975,245.202 962.935,245.741 964.895,246.282 966.856,246.824 968.816,247.367 970.776,247.913 972.737,248.46 974.697,249.008 976.657,249.559 978.618,250.112 980.578,250.666 982.538,251.223 984.499,251.781 986.459,252.342 988.419,252.905 990.38,253.47 992.34,254.038 994.3,254.608 996.261,255.181 998.221,255.756 1000.18,256.335 1002.14,256.915 1004.1,257.499 1006.06,258.086 1008.02,258.676 1009.98,259.269 1011.94,259.865 1013.9,260.464 1015.86,261.068 1017.82,261.674 1019.78,262.285 1021.75,262.899 1023.71,263.517 1025.67,264.139 1027.63,264.765 1029.59,265.395 1031.55,266.03 1033.51,266.669 1035.47,267.313 1037.43,267.962 1039.39,268.616 1041.35,269.274 1043.31,269.938 1045.27,270.607 1047.23,271.282 1049.19,271.962 1051.15,272.648 1053.11,273.34 1055.07,274.037 1057.03,274.741 1058.99,275.452 1060.95,276.169 1062.91,276.892 1064.87,277.623 1066.83,278.36 1068.79,279.105 1070.75,279.857 1072.71,280.616 1074.67,281.383 1076.63,282.158 1078.59,282.941 1080.56,283.732 1082.52,284.531 1084.48,285.339 1086.44,286.155 1088.4,286.98 1090.36,287.814 1092.32,288.657 1094.28,289.51 1096.24,290.372 1098.2,291.243 1100.16,292.125 1102.12,293.016 1104.08,293.917 1106.04,294.828 1108,295.75 1109.96,296.682 1111.92,297.625 1113.88,298.579 1115.84,299.543 1117.8,300.519 1119.76,301.505 1121.72,302.503 1123.68,303.512 1125.64,304.532 1127.6,305.564 1129.56,306.607 1131.52,307.663 1133.48,308.73 1135.44,309.808 1137.41,310.899 1139.37,312.001 1141.33,313.116 1143.29,314.242 1145.25,315.38 1147.21,316.531 1149.17,317.693 1151.13,318.868 1153.09,320.055 1155.05,321.254 1157.01,322.464 1158.97,323.687 1160.93,324.922 1162.89,326.169 1164.85,327.427 1166.81,328.698 1168.77,329.98 1170.73,331.274 1172.69,332.58 1174.65,333.897 1176.61,335.226 1178.57,336.566 1180.53,337.917 1182.49,339.28 1184.45,340.653 1186.41,342.038 1188.37,343.433 1190.33,344.84 1192.29,346.256 1194.25,347.684 1196.22,349.121 1198.18,350.569 1200.14,352.027 1202.1,353.494 1204.06,354.971 1206.02,356.458 1207.98,357.955 1209.94,359.46 1211.9,360.975 1213.86,362.498 1215.82,364.031 1217.78,365.572 1219.74,367.121 1221.7,368.679 1223.66,370.245 1225.62,371.818 1227.58,373.4 1229.54,374.989 1231.5,376.586 1233.46,378.189 1235.42,379.8 1237.38,381.418 1239.34,383.043 1241.3,384.675 1243.26,386.312 1245.22,387.957 1247.18,389.607 1249.14,391.264 1251.1,392.926 1253.07,394.594 1255.03,396.267 1256.99,397.947 1258.95,399.631 1260.91,401.32 1262.87,403.015 1264.83,404.714 1266.79,406.418 1268.75,408.127 1270.71,409.84 1272.67,411.558 1274.63,413.28 1276.59,415.006 1278.55,416.735 1280.51,418.469 1282.47,420.207 1284.43,421.948 1286.39,423.693 1288.35,425.441 1290.31,427.193 1292.27,428.948 1294.23,430.706 1296.19,432.467 1298.15,434.231 1300.11,435.997 1302.07,437.767 1304.03,439.539 1305.99,441.314 1307.95,443.092 1309.91,444.872 1311.88,446.654 1313.84,448.439 1315.8,450.226 1317.76,452.015 1319.72,453.806 1321.68,455.599 1323.64,457.394 1325.6,459.191 1327.56,460.99 1329.52,462.79 1331.48,464.593 1333.44,466.397 1335.4,468.202 1337.36,470.009 1339.32,471.818 1341.28,473.628 1343.24,475.439 1345.2,477.252 1347.16,479.067 1349.12,480.882 1351.08,482.699 1353.04,484.516 1355,486.335 1356.96,488.156 1358.92,489.977 1360.88,491.799 1362.84,493.622 1364.8,495.446 1366.76,497.272 1368.73,499.098 1370.69,500.925 1372.65,502.752 1374.61,504.581 1376.57,506.41 1378.53,508.24 1380.49,510.071 1382.45,511.903 1384.41,513.735 1386.37,515.568 1388.33,517.402 1390.29,519.236 1392.25,521.071 1394.21,522.906 1396.17,524.742 1398.13,526.578 1400.09,528.415 1402.05,530.253 1404.01,532.091 1405.97,533.929 1407.93,535.768 1409.89,537.607 1411.85,539.447 1413.81,541.287 1415.77,543.128 1417.73,544.969 1419.69,546.81 1421.65,548.652 1423.61,550.494 1425.57,552.336 1427.54,554.179 1429.5,556.022 1431.46,557.865 1433.42,559.709 1435.38,561.552 1437.34,563.397 1439.3,565.241 1441.26,567.085 1443.22,568.93 1445.18,570.775 1447.14,572.621 1449.1,574.466 1451.06,576.312 1453.02,578.158 1454.98,580.004 1456.94,581.85 1458.9,583.697 1460.86,585.543 1462.82,587.39 1464.78,589.237 1466.74,591.084 1468.7,592.932 1470.66,594.779 1472.62,596.627 1474.58,598.474 1476.54,600.322 1478.5,602.17 1480.46,604.018 1482.42,605.867 1484.38,607.715 1486.35,609.563 1488.31,611.412 1490.27,613.261 1492.23,615.109 1494.19,616.958 1496.15,618.807 1498.11,620.656 1500.07,622.505 1502.03,624.355 1503.99,626.204 1505.95,628.053 1507.91,629.903 1509.87,631.752 1511.83,633.602 1513.79,635.452 1515.75,637.301 1517.71,639.151 1519.67,641.001 1521.63,642.851 1523.59,644.701 1525.55,646.551 1527.51,648.401 1529.47,650.251 1531.43,652.101 1533.39,653.951 1535.35,655.802 1537.31,657.652 1539.27,659.502 1541.23,661.353 1543.2,663.203 1545.16,665.053 1547.12,666.904 1549.08,668.754 1551.04,670.605 1553,672.456 1554.96,674.306 1556.92,676.157 1558.88,678.008 1560.84,679.858 1562.8,681.709 1564.76,683.56 1566.72,685.411 1568.68,687.262 1570.64,689.112 1572.6,690.963 1574.56,692.814 1576.52,694.665 1578.48,696.516 1580.44,698.367 1582.4,700.218 1584.36,702.069 1586.32,703.92 1588.28,705.771 1590.24,707.622 1592.2,709.473 1594.16,711.324 1596.12,713.175 1598.08,715.026 1600.04,716.878 1602.01,718.729 1603.97,720.58 1605.93,722.431 1607.89,724.282 1609.85,726.133 1611.81,727.985 1613.77,729.836 1615.73,731.687 1617.69,733.538 1619.65,735.389 1621.61,737.241 1623.57,739.092 1625.53,740.943 1627.49,742.795 1629.45,744.646 1631.41,746.497 1633.37,748.348 1635.33,750.2 1637.29,752.051 1639.25,753.902 1641.21,755.754 1643.17,757.605 1645.13,759.456 1647.09,761.308 1649.05,763.159 1651.01,765.01 1652.97,766.862 1654.93,768.713 1656.89,770.565 1658.86,772.416 1660.82,774.267 1662.78,776.119 1664.74,777.97 1666.7,779.821 1668.66,781.673 1670.62,783.524 1672.58,785.376 1674.54,787.227 1676.5,789.079 1678.46,790.93 1680.42,792.781 1682.38,794.633 1684.34,796.484 1686.3,798.336 1688.26,800.187 1690.22,802.039 1692.18,803.89 1694.14,805.741 1696.1,807.593 1698.06,809.444 1700.02,811.296 1701.98,813.147 1703.94,814.999 1705.9,816.85 1707.86,818.702 1709.82,820.553 1711.78,822.405 1713.74,824.256 1715.7,826.107 1717.67,827.959 1719.63,829.81 1721.59,831.662 1723.55,833.513 1725.51,835.365 1727.47,837.216 1729.43,839.068 1731.39,840.919 1733.35,842.771 1735.31,844.622 1737.27,846.474 1739.23,848.325 1741.19,850.177 1743.15,852.028 1745.11,853.88 1747.07,855.731 1749.03,857.583 1750.99,859.434 1752.95,861.286 1754.91,863.137 1756.87,864.989 1758.83,866.84 1760.79,868.692 1762.75,870.543 1764.71,872.395 1766.67,874.246 1768.63,876.097 1770.59,877.949 1772.55,879.8 1774.51,881.652 1776.48,883.503 1778.44,885.355 1780.4,887.206 1782.36,889.058 1784.32,890.909 1786.28,892.761 1788.24,894.612 1790.2,896.464 1792.16,898.315 1794.12,900.167 1796.08,902.018 1798.04,903.87 1800,905.722 1801.96,907.573 1803.92,909.425 1805.88,911.276 1807.84,913.128 1809.8,914.979 1811.76,916.831 1813.72,918.682 1815.68,920.534 1817.64,922.385 1819.6,924.237 1821.56,926.088 1823.52,927.94 1825.48,929.791 1827.44,931.643 1829.4,933.494 1831.36,935.346 1833.33,937.197 1835.29,939.049 1837.25,940.9 1839.21,942.752 1841.17,944.603 1843.13,946.455 1845.09,948.306 1847.05,950.158 1849.01,952.009 1850.97,953.861 1852.93,955.712 1854.89,957.564 1856.85,959.415 1858.81,961.267 1860.77,963.118 1862.73,964.97 1864.69,966.821 1866.65,968.673 1868.61,970.524 1870.57,972.376 1872.53,974.227 1874.49,976.079 1876.45,977.93 1878.41,979.782 1880.37,981.633 1882.33,983.485 1884.29,985.336 1886.25,987.188 1888.21,989.039 1890.17,990.891 1892.14,992.742 1894.1,994.594 1896.06,996.445 1898.02,998.297 1899.98,1000.15 1901.94,1002 1903.9,1003.85 1905.86,1005.7 1907.82,1007.55 1909.78,1009.41 1911.74,1011.26 1913.7,1013.11 1915.66,1014.96 1917.62,1016.81 1919.58,1018.66 1921.54,1020.52 1923.5,1022.37 1925.46,1024.22 1927.42,1026.07 1929.38,1027.92 1931.34,1029.77 1933.3,1031.62 1935.26,1033.48 1937.22,1035.33 1939.18,1037.18 1941.14,1039.03 1943.1,1040.88 1945.06,1042.73 1947.02,1044.58 1948.99,1046.44 1950.95,1048.29 1952.91,1050.14 1954.87,1051.99 1956.83,1053.84 1958.79,1055.69 1960.75,1057.55 1962.71,1059.4 1964.67,1061.25 1966.63,1063.1 1968.59,1064.95 1970.55,1066.8 1972.51,1068.65 1974.47,1070.51 1976.43,1072.36 1978.39,1074.21 1980.35,1076.06 1982.31,1077.91 1984.27,1079.76 1986.23,1081.62 1988.19,1083.47 1990.15,1085.32 1992.11,1087.17 1994.07,1089.02 1996.03,1090.87 1997.99,1092.72 1999.95,1094.58 2001.91,1096.43 2003.87,1098.28 2005.83,1100.13 2007.8,1101.98 2009.76,1103.83 2011.72,1105.68 2013.68,1107.54 2015.64,1109.39 2017.6,1111.24 2019.56,1113.09 2021.52,1114.94 2023.48,1116.79 2025.44,1118.65 2027.4,1120.5 2029.36,1122.35 2031.32,1124.2 2033.28,1126.05 2035.24,1127.9 2037.2,1129.75 2039.16,1131.61 2041.12,1133.46 2043.08,1135.31 2045.04,1137.16 2047,1139.01 2048.96,1140.86 2050.92,1142.71 2052.88,1144.57 2054.84,1146.42 2056.8,1148.27 2058.76,1150.12 2060.72,1151.97 2062.68,1153.82 2064.65,1155.68 2066.61,1157.53 2068.57,1159.38 2070.53,1161.23 2072.49,1163.08 2074.45,1164.93 2076.41,1166.78 2078.37,1168.64 2080.33,1170.49 2082.29,1172.34 2084.25,1174.19 2086.21,1176.04 2088.17,1177.89 2090.13,1179.75 2092.09,1181.6 2094.05,1183.45 2096.01,1185.3 2097.97,1187.15 2099.93,1189 2101.89,1190.85 2103.85,1192.71 2105.81,1194.56 2107.77,1196.41 2109.73,1198.26 2111.69,1200.11 2113.65,1201.96 2115.61,1203.81 2117.57,1205.67 2119.53,1207.52 2121.49,1209.37 2123.46,1211.22 2125.42,1213.07 2127.38,1214.92 2129.34,1216.78 2131.3,1218.63 2133.26,1220.48 2135.22,1222.33 2137.18,1224.18 2139.14,1226.03 2141.1,1227.88 2143.06,1229.74 2145.02,1231.59 2146.98,1233.44 2148.94,1235.29 2150.9,1237.14 2152.86,1238.99 2154.82,1240.85 2156.78,1242.7 2158.74,1244.55 2160.7,1246.4 2162.66,1248.25 2164.62,1250.1 2166.58,1251.95 2168.54,1253.81 2170.5,1255.66 2172.46,1257.51 2174.42,1259.36 2176.38,1261.21 2178.34,1263.06 2180.3,1264.91 2182.27,1266.77 2184.23,1268.62 2186.19,1270.47 2188.15,1272.32 2190.11,1274.17 2192.07,1276.02 2194.03,1277.88 2195.99,1279.73 2197.95,1281.58 2199.91,1283.43 2201.87,1285.28 2203.83,1287.13 2205.79,1288.98 2207.75,1290.84 2209.71,1292.69 2211.67,1294.54 2213.63,1296.39 2215.59,1298.24 2217.55,1300.09 2219.51,1301.95 2221.47,1303.8 2223.43,1305.65 2225.39,1307.5 2227.35,1309.35 2229.31,1311.2 2231.27,1313.05 2233.23,1314.91 2235.19,1316.76 2237.15,1318.61 2239.12,1320.46 2241.08,1322.31 2243.04,1324.16 2245,1326.01 2246.96,1327.87 2248.92,1329.72 2250.88,1331.57 2252.84,1333.42 2254.8,1335.27 2256.76,1337.12 2258.72,1338.98 2260.68,1340.83 2262.64,1342.68 2264.6,1344.53 2266.56,1346.38 2268.52,1348.23 2270.48,1350.08 2272.44,1351.94 2274.4,1353.79 2276.36,1355.64 2278.32,1357.49 2280.28,1359.34 2282.24,1361.19 2284.2,1363.05 2286.16,1364.9 2288.12,1366.75 2290.08,1368.6 2292.04,1370.45 2294,1372.3 "/>
<path clip-path="url(#clip600)" d="M1696.53 196.379 L2283.56 196.379 L2283.56 92.6992 L1696.53 92.6992  Z" fill="#ffffff" fill-rule="evenodd" fill-opacity="1"/>
<polyline clip-path="url(#clip600)" style="stroke:#000000; stroke-linecap:round; stroke-linejoin:round; stroke-width:4; stroke-opacity:1; fill:none" points="1696.53,196.379 2283.56,196.379 2283.56,92.6992 1696.53,92.6992 1696.53,196.379 "/>
<polyline clip-path="url(#clip600)" style="stroke:#009af9; stroke-linecap:round; stroke-linejoin:round; stroke-width:4; stroke-opacity:1; fill:none" points="1719.59,144.539 1857.99,144.539 "/>
<path clip-path="url(#clip600)" d="M1885.73 131.102 L1885.73 144.088 L1891.61 144.088 Q1894.87 144.088 1896.65 142.398 Q1898.44 140.708 1898.44 137.583 Q1898.44 134.481 1896.65 132.792 Q1894.87 131.102 1891.61 131.102 L1885.73 131.102 M1881.05 127.259 L1891.61 127.259 Q1897.42 127.259 1900.38 129.898 Q1903.37 132.514 1903.37 137.583 Q1903.37 142.699 1900.38 145.315 Q1897.42 147.93 1891.61 147.93 L1885.73 147.93 L1885.73 161.819 L1881.05 161.819 L1881.05 127.259 Z" fill="#000000" fill-rule="nonzero" fill-opacity="1" /><path clip-path="url(#clip600)" d="M1917.81 138.879 Q1914.39 138.879 1912.39 141.565 Q1910.4 144.227 1910.4 148.879 Q1910.4 153.532 1912.37 156.217 Q1914.36 158.879 1917.81 158.879 Q1921.21 158.879 1923.2 156.194 Q1925.2 153.509 1925.2 148.879 Q1925.2 144.273 1923.2 141.588 Q1921.21 138.879 1917.81 138.879 M1917.81 135.268 Q1923.37 135.268 1926.54 138.879 Q1929.71 142.491 1929.71 148.879 Q1929.71 155.245 1926.54 158.879 Q1923.37 162.49 1917.81 162.49 Q1912.23 162.49 1909.06 158.879 Q1905.91 155.245 1905.91 148.879 Q1905.91 142.491 1909.06 138.879 Q1912.23 135.268 1917.81 135.268 Z" fill="#000000" fill-rule="nonzero" fill-opacity="1" /><path clip-path="url(#clip600)" d="M1934.29 135.893 L1938.55 135.893 L1943.88 156.125 L1949.18 135.893 L1954.2 135.893 L1959.52 156.125 L1964.82 135.893 L1969.08 135.893 L1962.3 161.819 L1957.28 161.819 L1951.7 140.569 L1946.1 161.819 L1941.07 161.819 L1934.29 135.893 Z" fill="#000000" fill-rule="nonzero" fill-opacity="1" /><path clip-path="url(#clip600)" d="M1997.72 147.791 L1997.72 149.875 L1978.13 149.875 Q1978.41 154.273 1980.77 156.588 Q1983.16 158.879 1987.39 158.879 Q1989.85 158.879 1992.14 158.278 Q1994.45 157.676 1996.72 156.472 L1996.72 160.5 Q1994.43 161.472 1992.02 161.981 Q1989.62 162.49 1987.14 162.49 Q1980.94 162.49 1977.3 158.879 Q1973.69 155.268 1973.69 149.111 Q1973.69 142.745 1977.12 139.018 Q1980.57 135.268 1986.4 135.268 Q1991.63 135.268 1994.66 138.648 Q1997.72 142.004 1997.72 147.791 M1993.46 146.541 Q1993.41 143.046 1991.49 140.963 Q1989.59 138.879 1986.45 138.879 Q1982.88 138.879 1980.73 140.893 Q1978.6 142.907 1978.27 146.565 L1993.46 146.541 Z" fill="#000000" fill-rule="nonzero" fill-opacity="1" /><path clip-path="url(#clip600)" d="M2019.73 139.875 Q2019.01 139.458 2018.16 139.273 Q2017.32 139.065 2016.31 139.065 Q2012.69 139.065 2010.75 141.426 Q2008.83 143.764 2008.83 148.162 L2008.83 161.819 L2004.55 161.819 L2004.55 135.893 L2008.83 135.893 L2008.83 139.921 Q2010.17 137.56 2012.32 136.426 Q2014.48 135.268 2017.56 135.268 Q2018 135.268 2018.53 135.338 Q2019.06 135.384 2019.71 135.5 L2019.73 139.875 Z" fill="#000000" fill-rule="nonzero" fill-opacity="1" /><path clip-path="url(#clip600)" d="M2060.17 128.393 L2060.17 132.954 Q2057.51 131.68 2055.15 131.055 Q2052.79 130.43 2050.59 130.43 Q2046.77 130.43 2044.69 131.912 Q2042.63 133.393 2042.63 136.125 Q2042.63 138.417 2043.99 139.597 Q2045.38 140.754 2049.22 141.472 L2052.05 142.051 Q2057.28 143.046 2059.75 145.569 Q2062.25 148.069 2062.25 152.282 Q2062.25 157.305 2058.88 159.898 Q2055.52 162.49 2049.01 162.49 Q2046.56 162.49 2043.78 161.935 Q2041.03 161.379 2038.07 160.291 L2038.07 155.477 Q2040.91 157.074 2043.64 157.884 Q2046.38 158.694 2049.01 158.694 Q2053.02 158.694 2055.19 157.12 Q2057.37 155.546 2057.37 152.629 Q2057.37 150.083 2055.8 148.648 Q2054.25 147.213 2050.68 146.495 L2047.83 145.94 Q2042.6 144.898 2040.26 142.676 Q2037.93 140.454 2037.93 136.495 Q2037.93 131.912 2041.14 129.273 Q2044.38 126.634 2050.06 126.634 Q2052.49 126.634 2055.01 127.074 Q2057.53 127.514 2060.17 128.393 Z" fill="#000000" fill-rule="nonzero" fill-opacity="1" /><path clip-path="url(#clip600)" d="M2073.48 157.93 L2073.48 171.68 L2069.2 171.68 L2069.2 135.893 L2073.48 135.893 L2073.48 139.829 Q2074.82 137.514 2076.86 136.403 Q2078.92 135.268 2081.77 135.268 Q2086.49 135.268 2089.43 139.018 Q2092.39 142.768 2092.39 148.879 Q2092.39 154.991 2089.43 158.74 Q2086.49 162.49 2081.77 162.49 Q2078.92 162.49 2076.86 161.379 Q2074.82 160.245 2073.48 157.93 M2087.97 148.879 Q2087.97 144.18 2086.03 141.518 Q2084.11 138.833 2080.73 138.833 Q2077.35 138.833 2075.4 141.518 Q2073.48 144.18 2073.48 148.879 Q2073.48 153.578 2075.4 156.264 Q2077.35 158.926 2080.73 158.926 Q2084.11 158.926 2086.03 156.264 Q2087.97 153.578 2087.97 148.879 Z" fill="#000000" fill-rule="nonzero" fill-opacity="1" /><path clip-path="url(#clip600)" d="M2121.63 147.791 L2121.63 149.875 L2102.05 149.875 Q2102.32 154.273 2104.69 156.588 Q2107.07 158.879 2111.31 158.879 Q2113.76 158.879 2116.05 158.278 Q2118.37 157.676 2120.63 156.472 L2120.63 160.5 Q2118.34 161.472 2115.94 161.981 Q2113.53 162.49 2111.05 162.49 Q2104.85 162.49 2101.21 158.879 Q2097.6 155.268 2097.6 149.111 Q2097.6 142.745 2101.03 139.018 Q2104.48 135.268 2110.31 135.268 Q2115.54 135.268 2118.57 138.648 Q2121.63 142.004 2121.63 147.791 M2117.37 146.541 Q2117.32 143.046 2115.4 140.963 Q2113.5 138.879 2110.36 138.879 Q2106.79 138.879 2104.64 140.893 Q2102.51 142.907 2102.19 146.565 L2117.37 146.541 Z" fill="#000000" fill-rule="nonzero" fill-opacity="1" /><path clip-path="url(#clip600)" d="M2147.28 136.889 L2147.28 140.87 Q2145.47 139.875 2143.64 139.389 Q2141.84 138.879 2139.99 138.879 Q2135.84 138.879 2133.55 141.518 Q2131.26 144.134 2131.26 148.879 Q2131.26 153.625 2133.55 156.264 Q2135.84 158.879 2139.99 158.879 Q2141.84 158.879 2143.64 158.393 Q2145.47 157.884 2147.28 156.889 L2147.28 160.824 Q2145.5 161.657 2143.57 162.074 Q2141.68 162.49 2139.52 162.49 Q2133.67 162.49 2130.22 158.81 Q2126.77 155.129 2126.77 148.879 Q2126.77 142.537 2130.24 138.903 Q2133.74 135.268 2139.8 135.268 Q2141.77 135.268 2143.64 135.685 Q2145.52 136.079 2147.28 136.889 Z" fill="#000000" fill-rule="nonzero" fill-opacity="1" /><path clip-path="url(#clip600)" d="M2158.9 128.532 L2158.9 135.893 L2167.67 135.893 L2167.67 139.204 L2158.9 139.204 L2158.9 153.278 Q2158.9 156.449 2159.75 157.352 Q2160.63 158.254 2163.3 158.254 L2167.67 158.254 L2167.67 161.819 L2163.3 161.819 Q2158.37 161.819 2156.49 159.99 Q2154.62 158.139 2154.62 153.278 L2154.62 139.204 L2151.49 139.204 L2151.49 135.893 L2154.62 135.893 L2154.62 128.532 L2158.9 128.532 Z" fill="#000000" fill-rule="nonzero" fill-opacity="1" /><path clip-path="url(#clip600)" d="M2188.3 139.875 Q2187.58 139.458 2186.72 139.273 Q2185.89 139.065 2184.87 139.065 Q2181.26 139.065 2179.31 141.426 Q2177.39 143.764 2177.39 148.162 L2177.39 161.819 L2173.11 161.819 L2173.11 135.893 L2177.39 135.893 L2177.39 139.921 Q2178.74 137.56 2180.89 136.426 Q2183.04 135.268 2186.12 135.268 Q2186.56 135.268 2187.09 135.338 Q2187.62 135.384 2188.27 135.5 L2188.3 139.875 Z" fill="#000000" fill-rule="nonzero" fill-opacity="1" /><path clip-path="url(#clip600)" d="M2192.32 151.588 L2192.32 135.893 L2196.58 135.893 L2196.58 151.426 Q2196.58 155.106 2198.02 156.958 Q2199.45 158.787 2202.32 158.787 Q2205.77 158.787 2207.76 156.588 Q2209.78 154.389 2209.78 150.592 L2209.78 135.893 L2214.04 135.893 L2214.04 161.819 L2209.78 161.819 L2209.78 157.838 Q2208.23 160.199 2206.17 161.356 Q2204.13 162.49 2201.42 162.49 Q2196.95 162.49 2194.64 159.713 Q2192.32 156.935 2192.32 151.588 M2203.04 135.268 L2203.04 135.268 Z" fill="#000000" fill-rule="nonzero" fill-opacity="1" /><path clip-path="url(#clip600)" d="M2242.99 140.87 Q2244.59 138 2246.81 136.634 Q2249.04 135.268 2252.05 135.268 Q2256.1 135.268 2258.3 138.116 Q2260.49 140.94 2260.49 146.171 L2260.49 161.819 L2256.21 161.819 L2256.21 146.31 Q2256.21 142.583 2254.89 140.778 Q2253.57 138.972 2250.86 138.972 Q2247.55 138.972 2245.63 141.171 Q2243.71 143.37 2243.71 147.166 L2243.71 161.819 L2239.43 161.819 L2239.43 146.31 Q2239.43 142.56 2238.11 140.778 Q2236.79 138.972 2234.04 138.972 Q2230.77 138.972 2228.85 141.194 Q2226.93 143.393 2226.93 147.166 L2226.93 161.819 L2222.65 161.819 L2222.65 135.893 L2226.93 135.893 L2226.93 139.921 Q2228.39 137.537 2230.43 136.403 Q2232.46 135.268 2235.26 135.268 Q2238.09 135.268 2240.05 136.704 Q2242.05 138.139 2242.99 140.87 Z" fill="#000000" fill-rule="nonzero" fill-opacity="1" /></svg>
