<?xml version="1.0" encoding="utf-8"?>
<svg xmlns="http://www.w3.org/2000/svg" xmlns:xlink="http://www.w3.org/1999/xlink" width="600" height="400" viewBox="0 0 2400 1600">
<defs>
  <clipPath id="clip480">
    <rect x="0" y="0" width="2400" height="1600"/>
  </clipPath>
</defs>
<path clip-path="url(#clip480)" d="M0 1600 L2400 1600 L2400 0 L0 0  Z" fill="#ffffff" fill-rule="evenodd" fill-opacity="1"/>
<defs>
  <clipPath id="clip481">
    <rect x="480" y="0" width="1681" height="1600"/>
  </clipPath>
</defs>
<path clip-path="url(#clip480)" d="M234.125 1423.18 L2352.76 1423.18 L2352.76 47.2441 L234.125 47.2441  Z" fill="#ffffff" fill-rule="evenodd" fill-opacity="1"/>
<defs>
  <clipPath id="clip482">
    <rect x="234" y="47" width="2120" height="1377"/>
  </clipPath>
</defs>
<polyline clip-path="url(#clip482)" style="stroke:#000000; stroke-linecap:round; stroke-linejoin:round; stroke-width:2; stroke-opacity:0.1; fill:none" points="313.682,1423.18 313.682,47.2441 "/>
<polyline clip-path="url(#clip482)" style="stroke:#000000; stroke-linecap:round; stroke-linejoin:round; stroke-width:2; stroke-opacity:0.1; fill:none" points="683.402,1423.18 683.402,47.2441 "/>
<polyline clip-path="url(#clip482)" style="stroke:#000000; stroke-linecap:round; stroke-linejoin:round; stroke-width:2; stroke-opacity:0.1; fill:none" points="1053.12,1423.18 1053.12,47.2441 "/>
<polyline clip-path="url(#clip482)" style="stroke:#000000; stroke-linecap:round; stroke-linejoin:round; stroke-width:2; stroke-opacity:0.1; fill:none" points="1422.84,1423.18 1422.84,47.2441 "/>
<polyline clip-path="url(#clip482)" style="stroke:#000000; stroke-linecap:round; stroke-linejoin:round; stroke-width:2; stroke-opacity:0.1; fill:none" points="1792.56,1423.18 1792.56,47.2441 "/>
<polyline clip-path="url(#clip482)" style="stroke:#000000; stroke-linecap:round; stroke-linejoin:round; stroke-width:2; stroke-opacity:0.1; fill:none" points="2162.28,1423.18 2162.28,47.2441 "/>
<polyline clip-path="url(#clip482)" style="stroke:#000000; stroke-linecap:round; stroke-linejoin:round; stroke-width:2; stroke-opacity:0.1; fill:none" points="234.125,1423.18 2352.76,1423.18 "/>
<polyline clip-path="url(#clip482)" style="stroke:#000000; stroke-linecap:round; stroke-linejoin:round; stroke-width:2; stroke-opacity:0.1; fill:none" points="234.125,1040.98 2352.76,1040.98 "/>
<polyline clip-path="url(#clip482)" style="stroke:#000000; stroke-linecap:round; stroke-linejoin:round; stroke-width:2; stroke-opacity:0.1; fill:none" points="234.125,658.771 2352.76,658.771 "/>
<polyline clip-path="url(#clip482)" style="stroke:#000000; stroke-linecap:round; stroke-linejoin:round; stroke-width:2; stroke-opacity:0.1; fill:none" points="234.125,276.567 2352.76,276.567 "/>
<polyline clip-path="url(#clip480)" style="stroke:#000000; stroke-linecap:round; stroke-linejoin:round; stroke-width:4; stroke-opacity:1; fill:none" points="234.125,1423.18 2352.76,1423.18 "/>
<polyline clip-path="url(#clip480)" style="stroke:#000000; stroke-linecap:round; stroke-linejoin:round; stroke-width:4; stroke-opacity:1; fill:none" points="313.682,1423.18 313.682,1404.28 "/>
<polyline clip-path="url(#clip480)" style="stroke:#000000; stroke-linecap:round; stroke-linejoin:round; stroke-width:4; stroke-opacity:1; fill:none" points="683.402,1423.18 683.402,1404.28 "/>
<polyline clip-path="url(#clip480)" style="stroke:#000000; stroke-linecap:round; stroke-linejoin:round; stroke-width:4; stroke-opacity:1; fill:none" points="1053.12,1423.18 1053.12,1404.28 "/>
<polyline clip-path="url(#clip480)" style="stroke:#000000; stroke-linecap:round; stroke-linejoin:round; stroke-width:4; stroke-opacity:1; fill:none" points="1422.84,1423.18 1422.84,1404.28 "/>
<polyline clip-path="url(#clip480)" style="stroke:#000000; stroke-linecap:round; stroke-linejoin:round; stroke-width:4; stroke-opacity:1; fill:none" points="1792.56,1423.18 1792.56,1404.28 "/>
<polyline clip-path="url(#clip480)" style="stroke:#000000; stroke-linecap:round; stroke-linejoin:round; stroke-width:4; stroke-opacity:1; fill:none" points="2162.28,1423.18 2162.28,1404.28 "/>
<path clip-path="url(#clip480)" d="M265.754 1481.64 L273.393 1481.64 L273.393 1455.28 L265.083 1456.95 L265.083 1452.69 L273.346 1451.02 L278.022 1451.02 L278.022 1481.64 L285.661 1481.64 L285.661 1485.58 L265.754 1485.58 L265.754 1481.64 Z" fill="#000000" fill-rule="nonzero" fill-opacity="1" /><path clip-path="url(#clip480)" d="M305.106 1469.17 Q301.772 1469.17 299.851 1470.95 Q297.953 1472.73 297.953 1475.86 Q297.953 1478.98 299.851 1480.77 Q301.772 1482.55 305.106 1482.55 Q308.439 1482.55 310.36 1480.77 Q312.281 1478.96 312.281 1475.86 Q312.281 1472.73 310.36 1470.95 Q308.462 1469.17 305.106 1469.17 M300.43 1467.18 Q297.42 1466.44 295.731 1464.38 Q294.064 1462.32 294.064 1459.35 Q294.064 1455.21 297.004 1452.8 Q299.967 1450.39 305.106 1450.39 Q310.268 1450.39 313.207 1452.8 Q316.147 1455.21 316.147 1459.35 Q316.147 1462.32 314.457 1464.38 Q312.791 1466.44 309.805 1467.18 Q313.184 1467.96 315.059 1470.26 Q316.957 1472.55 316.957 1475.86 Q316.957 1480.88 313.879 1483.57 Q310.823 1486.25 305.106 1486.25 Q299.388 1486.25 296.309 1483.57 Q293.254 1480.88 293.254 1475.86 Q293.254 1472.55 295.152 1470.26 Q297.05 1467.96 300.43 1467.18 M298.717 1459.79 Q298.717 1462.48 300.383 1463.98 Q302.073 1465.49 305.106 1465.49 Q308.115 1465.49 309.805 1463.98 Q311.518 1462.48 311.518 1459.79 Q311.518 1457.11 309.805 1455.6 Q308.115 1454.1 305.106 1454.1 Q302.073 1454.1 300.383 1455.6 Q298.717 1457.11 298.717 1459.79 Z" fill="#000000" fill-rule="nonzero" fill-opacity="1" /><path clip-path="url(#clip480)" d="M325.267 1479.7 L330.152 1479.7 L330.152 1485.58 L325.267 1485.58 L325.267 1479.7 Z" fill="#000000" fill-rule="nonzero" fill-opacity="1" /><path clip-path="url(#clip480)" d="M350.337 1454.1 Q346.726 1454.1 344.897 1457.66 Q343.091 1461.2 343.091 1468.33 Q343.091 1475.44 344.897 1479.01 Q346.726 1482.55 350.337 1482.55 Q353.971 1482.55 355.777 1479.01 Q357.605 1475.44 357.605 1468.33 Q357.605 1461.2 355.777 1457.66 Q353.971 1454.1 350.337 1454.1 M350.337 1450.39 Q356.147 1450.39 359.202 1455 Q362.281 1459.58 362.281 1468.33 Q362.281 1477.06 359.202 1481.67 Q356.147 1486.25 350.337 1486.25 Q344.527 1486.25 341.448 1481.67 Q338.392 1477.06 338.392 1468.33 Q338.392 1459.58 341.448 1455 Q344.527 1450.39 350.337 1450.39 Z" fill="#000000" fill-rule="nonzero" fill-opacity="1" /><path clip-path="url(#clip480)" d="M636.088 1481.64 L643.726 1481.64 L643.726 1455.28 L635.416 1456.95 L635.416 1452.69 L643.68 1451.02 L648.356 1451.02 L648.356 1481.64 L655.995 1481.64 L655.995 1485.58 L636.088 1485.58 L636.088 1481.64 Z" fill="#000000" fill-rule="nonzero" fill-opacity="1" /><path clip-path="url(#clip480)" d="M675.439 1469.17 Q672.106 1469.17 670.185 1470.95 Q668.287 1472.73 668.287 1475.86 Q668.287 1478.98 670.185 1480.77 Q672.106 1482.55 675.439 1482.55 Q678.773 1482.55 680.694 1480.77 Q682.615 1478.96 682.615 1475.86 Q682.615 1472.73 680.694 1470.95 Q678.796 1469.17 675.439 1469.17 M670.763 1467.18 Q667.754 1466.44 666.064 1464.38 Q664.398 1462.32 664.398 1459.35 Q664.398 1455.21 667.337 1452.8 Q670.3 1450.39 675.439 1450.39 Q680.601 1450.39 683.541 1452.8 Q686.481 1455.21 686.481 1459.35 Q686.481 1462.32 684.791 1464.38 Q683.124 1466.44 680.138 1467.18 Q683.518 1467.96 685.393 1470.26 Q687.291 1472.55 687.291 1475.86 Q687.291 1480.88 684.212 1483.57 Q681.157 1486.25 675.439 1486.25 Q669.722 1486.25 666.643 1483.57 Q663.587 1480.88 663.587 1475.86 Q663.587 1472.55 665.486 1470.26 Q667.384 1467.96 670.763 1467.18 M669.05 1459.79 Q669.05 1462.48 670.717 1463.98 Q672.407 1465.49 675.439 1465.49 Q678.448 1465.49 680.138 1463.98 Q681.851 1462.48 681.851 1459.79 Q681.851 1457.11 680.138 1455.6 Q678.448 1454.1 675.439 1454.1 Q672.407 1454.1 670.717 1455.6 Q669.05 1457.11 669.05 1459.79 Z" fill="#000000" fill-rule="nonzero" fill-opacity="1" /><path clip-path="url(#clip480)" d="M695.601 1479.7 L700.485 1479.7 L700.485 1485.58 L695.601 1485.58 L695.601 1479.7 Z" fill="#000000" fill-rule="nonzero" fill-opacity="1" /><path clip-path="url(#clip480)" d="M711.481 1481.64 L719.12 1481.64 L719.12 1455.28 L710.809 1456.95 L710.809 1452.69 L719.073 1451.02 L723.749 1451.02 L723.749 1481.64 L731.388 1481.64 L731.388 1485.58 L711.481 1485.58 L711.481 1481.64 Z" fill="#000000" fill-rule="nonzero" fill-opacity="1" /><path clip-path="url(#clip480)" d="M1005.99 1481.64 L1013.63 1481.64 L1013.63 1455.28 L1005.32 1456.95 L1005.32 1452.69 L1013.59 1451.02 L1018.26 1451.02 L1018.26 1481.64 L1025.9 1481.64 L1025.9 1485.58 L1005.99 1485.58 L1005.99 1481.64 Z" fill="#000000" fill-rule="nonzero" fill-opacity="1" /><path clip-path="url(#clip480)" d="M1045.34 1469.17 Q1042.01 1469.17 1040.09 1470.95 Q1038.19 1472.73 1038.19 1475.86 Q1038.19 1478.98 1040.09 1480.77 Q1042.01 1482.55 1045.34 1482.55 Q1048.68 1482.55 1050.6 1480.77 Q1052.52 1478.96 1052.52 1475.86 Q1052.52 1472.73 1050.6 1470.95 Q1048.7 1469.17 1045.34 1469.17 M1040.67 1467.18 Q1037.66 1466.44 1035.97 1464.38 Q1034.3 1462.32 1034.3 1459.35 Q1034.3 1455.21 1037.24 1452.8 Q1040.21 1450.39 1045.34 1450.39 Q1050.51 1450.39 1053.45 1452.8 Q1056.39 1455.21 1056.39 1459.35 Q1056.39 1462.32 1054.7 1464.38 Q1053.03 1466.44 1050.04 1467.18 Q1053.42 1467.96 1055.3 1470.26 Q1057.2 1472.55 1057.2 1475.86 Q1057.2 1480.88 1054.12 1483.57 Q1051.06 1486.25 1045.34 1486.25 Q1039.63 1486.25 1036.55 1483.57 Q1033.49 1480.88 1033.49 1475.86 Q1033.49 1472.55 1035.39 1470.26 Q1037.29 1467.96 1040.67 1467.18 M1038.96 1459.79 Q1038.96 1462.48 1040.62 1463.98 Q1042.31 1465.49 1045.34 1465.49 Q1048.35 1465.49 1050.04 1463.98 Q1051.76 1462.48 1051.76 1459.79 Q1051.76 1457.11 1050.04 1455.6 Q1048.35 1454.1 1045.34 1454.1 Q1042.31 1454.1 1040.62 1455.6 Q1038.96 1457.11 1038.96 1459.79 Z" fill="#000000" fill-rule="nonzero" fill-opacity="1" /><path clip-path="url(#clip480)" d="M1065.51 1479.7 L1070.39 1479.7 L1070.39 1485.58 L1065.51 1485.58 L1065.51 1479.7 Z" fill="#000000" fill-rule="nonzero" fill-opacity="1" /><path clip-path="url(#clip480)" d="M1084.6 1481.64 L1100.92 1481.64 L1100.92 1485.58 L1078.98 1485.58 L1078.98 1481.64 Q1081.64 1478.89 1086.22 1474.26 Q1090.83 1469.61 1092.01 1468.27 Q1094.26 1465.74 1095.14 1464.01 Q1096.04 1462.25 1096.04 1460.56 Q1096.04 1457.8 1094.09 1456.07 Q1092.17 1454.33 1089.07 1454.33 Q1086.87 1454.33 1084.42 1455.09 Q1081.99 1455.86 1079.21 1457.41 L1079.21 1452.69 Q1082.03 1451.55 1084.49 1450.97 Q1086.94 1450.39 1088.98 1450.39 Q1094.35 1450.39 1097.54 1453.08 Q1100.74 1455.77 1100.74 1460.26 Q1100.74 1462.39 1099.93 1464.31 Q1099.14 1466.2 1097.03 1468.8 Q1096.46 1469.47 1093.35 1472.69 Q1090.25 1475.88 1084.6 1481.64 Z" fill="#000000" fill-rule="nonzero" fill-opacity="1" /><path clip-path="url(#clip480)" d="M1375.24 1481.64 L1382.88 1481.64 L1382.88 1455.28 L1374.57 1456.95 L1374.57 1452.69 L1382.83 1451.02 L1387.51 1451.02 L1387.51 1481.64 L1395.15 1481.64 L1395.15 1485.58 L1375.24 1485.58 L1375.24 1481.64 Z" fill="#000000" fill-rule="nonzero" fill-opacity="1" /><path clip-path="url(#clip480)" d="M1414.59 1469.17 Q1411.26 1469.17 1409.34 1470.95 Q1407.44 1472.73 1407.44 1475.86 Q1407.44 1478.98 1409.34 1480.77 Q1411.26 1482.55 1414.59 1482.55 Q1417.92 1482.55 1419.85 1480.77 Q1421.77 1478.96 1421.77 1475.86 Q1421.77 1472.73 1419.85 1470.95 Q1417.95 1469.17 1414.59 1469.17 M1409.91 1467.18 Q1406.91 1466.44 1405.22 1464.38 Q1403.55 1462.32 1403.55 1459.35 Q1403.55 1455.21 1406.49 1452.8 Q1409.45 1450.39 1414.59 1450.39 Q1419.75 1450.39 1422.69 1452.8 Q1425.63 1455.21 1425.63 1459.35 Q1425.63 1462.32 1423.94 1464.38 Q1422.28 1466.44 1419.29 1467.18 Q1422.67 1467.96 1424.54 1470.26 Q1426.44 1472.55 1426.44 1475.86 Q1426.44 1480.88 1423.36 1483.57 Q1420.31 1486.25 1414.59 1486.25 Q1408.87 1486.25 1405.79 1483.57 Q1402.74 1480.88 1402.74 1475.86 Q1402.74 1472.55 1404.64 1470.26 Q1406.54 1467.96 1409.91 1467.18 M1408.2 1459.79 Q1408.2 1462.48 1409.87 1463.98 Q1411.56 1465.49 1414.59 1465.49 Q1417.6 1465.49 1419.29 1463.98 Q1421 1462.48 1421 1459.79 Q1421 1457.11 1419.29 1455.6 Q1417.6 1454.1 1414.59 1454.1 Q1411.56 1454.1 1409.87 1455.6 Q1408.2 1457.11 1408.2 1459.79 Z" fill="#000000" fill-rule="nonzero" fill-opacity="1" /><path clip-path="url(#clip480)" d="M1434.75 1479.7 L1439.64 1479.7 L1439.64 1485.58 L1434.75 1485.58 L1434.75 1479.7 Z" fill="#000000" fill-rule="nonzero" fill-opacity="1" /><path clip-path="url(#clip480)" d="M1463.99 1466.95 Q1467.34 1467.66 1469.22 1469.93 Q1471.12 1472.2 1471.12 1475.53 Q1471.12 1480.65 1467.6 1483.45 Q1464.08 1486.25 1457.6 1486.25 Q1455.42 1486.25 1453.11 1485.81 Q1450.82 1485.39 1448.36 1484.54 L1448.36 1480.02 Q1450.31 1481.16 1452.62 1481.74 Q1454.94 1482.32 1457.46 1482.32 Q1461.86 1482.32 1464.15 1480.58 Q1466.47 1478.84 1466.47 1475.53 Q1466.47 1472.48 1464.31 1470.77 Q1462.18 1469.03 1458.36 1469.03 L1454.34 1469.03 L1454.34 1465.19 L1458.55 1465.19 Q1462 1465.19 1463.83 1463.82 Q1465.66 1462.43 1465.66 1459.84 Q1465.66 1457.18 1463.76 1455.77 Q1461.88 1454.33 1458.36 1454.33 Q1456.44 1454.33 1454.24 1454.75 Q1452.04 1455.16 1449.41 1456.04 L1449.41 1451.88 Q1452.07 1451.14 1454.38 1450.77 Q1456.72 1450.39 1458.78 1450.39 Q1464.1 1450.39 1467.21 1452.83 Q1470.31 1455.23 1470.31 1459.35 Q1470.31 1462.22 1468.66 1464.21 Q1467.02 1466.18 1463.99 1466.95 Z" fill="#000000" fill-rule="nonzero" fill-opacity="1" /><path clip-path="url(#clip480)" d="M1744.39 1481.64 L1752.03 1481.64 L1752.03 1455.28 L1743.72 1456.95 L1743.72 1452.69 L1751.98 1451.02 L1756.66 1451.02 L1756.66 1481.64 L1764.3 1481.64 L1764.3 1485.58 L1744.39 1485.58 L1744.39 1481.64 Z" fill="#000000" fill-rule="nonzero" fill-opacity="1" /><path clip-path="url(#clip480)" d="M1783.74 1469.17 Q1780.41 1469.17 1778.49 1470.95 Q1776.59 1472.73 1776.59 1475.86 Q1776.59 1478.98 1778.49 1480.77 Q1780.41 1482.55 1783.74 1482.55 Q1787.08 1482.55 1789 1480.77 Q1790.92 1478.96 1790.92 1475.86 Q1790.92 1472.73 1789 1470.95 Q1787.1 1469.17 1783.74 1469.17 M1779.07 1467.18 Q1776.06 1466.44 1774.37 1464.38 Q1772.7 1462.32 1772.7 1459.35 Q1772.7 1455.21 1775.64 1452.8 Q1778.6 1450.39 1783.74 1450.39 Q1788.91 1450.39 1791.85 1452.8 Q1794.79 1455.21 1794.79 1459.35 Q1794.79 1462.32 1793.1 1464.38 Q1791.43 1466.44 1788.44 1467.18 Q1791.82 1467.96 1793.7 1470.26 Q1795.6 1472.55 1795.6 1475.86 Q1795.6 1480.88 1792.52 1483.57 Q1789.46 1486.25 1783.74 1486.25 Q1778.03 1486.25 1774.95 1483.57 Q1771.89 1480.88 1771.89 1475.86 Q1771.89 1472.55 1773.79 1470.26 Q1775.69 1467.96 1779.07 1467.18 M1777.35 1459.79 Q1777.35 1462.48 1779.02 1463.98 Q1780.71 1465.49 1783.74 1465.49 Q1786.75 1465.49 1788.44 1463.98 Q1790.16 1462.48 1790.16 1459.79 Q1790.16 1457.11 1788.44 1455.6 Q1786.75 1454.1 1783.74 1454.1 Q1780.71 1454.1 1779.02 1455.6 Q1777.35 1457.11 1777.35 1459.79 Z" fill="#000000" fill-rule="nonzero" fill-opacity="1" /><path clip-path="url(#clip480)" d="M1803.91 1479.7 L1808.79 1479.7 L1808.79 1485.58 L1803.91 1485.58 L1803.91 1479.7 Z" fill="#000000" fill-rule="nonzero" fill-opacity="1" /><path clip-path="url(#clip480)" d="M1831.82 1455.09 L1820.02 1473.54 L1831.82 1473.54 L1831.82 1455.09 M1830.6 1451.02 L1836.47 1451.02 L1836.47 1473.54 L1841.41 1473.54 L1841.41 1477.43 L1836.47 1477.43 L1836.47 1485.58 L1831.82 1485.58 L1831.82 1477.43 L1816.22 1477.43 L1816.22 1472.92 L1830.6 1451.02 Z" fill="#000000" fill-rule="nonzero" fill-opacity="1" /><path clip-path="url(#clip480)" d="M2114.85 1481.64 L2122.49 1481.64 L2122.49 1455.28 L2114.18 1456.95 L2114.18 1452.69 L2122.45 1451.02 L2127.12 1451.02 L2127.12 1481.64 L2134.76 1481.64 L2134.76 1485.58 L2114.85 1485.58 L2114.85 1481.64 Z" fill="#000000" fill-rule="nonzero" fill-opacity="1" /><path clip-path="url(#clip480)" d="M2154.2 1469.17 Q2150.87 1469.17 2148.95 1470.95 Q2147.05 1472.73 2147.05 1475.86 Q2147.05 1478.98 2148.95 1480.77 Q2150.87 1482.55 2154.2 1482.55 Q2157.54 1482.55 2159.46 1480.77 Q2161.38 1478.96 2161.38 1475.86 Q2161.38 1472.73 2159.46 1470.95 Q2157.56 1469.17 2154.2 1469.17 M2149.53 1467.18 Q2146.52 1466.44 2144.83 1464.38 Q2143.16 1462.32 2143.16 1459.35 Q2143.16 1455.21 2146.1 1452.8 Q2149.07 1450.39 2154.2 1450.39 Q2159.37 1450.39 2162.31 1452.8 Q2165.25 1455.21 2165.25 1459.35 Q2165.25 1462.32 2163.56 1464.38 Q2161.89 1466.44 2158.9 1467.18 Q2162.28 1467.96 2164.16 1470.26 Q2166.06 1472.55 2166.06 1475.86 Q2166.06 1480.88 2162.98 1483.57 Q2159.92 1486.25 2154.2 1486.25 Q2148.49 1486.25 2145.41 1483.57 Q2142.35 1480.88 2142.35 1475.86 Q2142.35 1472.55 2144.25 1470.26 Q2146.15 1467.96 2149.53 1467.18 M2147.82 1459.79 Q2147.82 1462.48 2149.48 1463.98 Q2151.17 1465.49 2154.2 1465.49 Q2157.21 1465.49 2158.9 1463.98 Q2160.62 1462.48 2160.62 1459.79 Q2160.62 1457.11 2158.9 1455.6 Q2157.21 1454.1 2154.2 1454.1 Q2151.17 1454.1 2149.48 1455.6 Q2147.82 1457.11 2147.82 1459.79 Z" fill="#000000" fill-rule="nonzero" fill-opacity="1" /><path clip-path="url(#clip480)" d="M2174.37 1479.7 L2179.25 1479.7 L2179.25 1485.58 L2174.37 1485.58 L2174.37 1479.7 Z" fill="#000000" fill-rule="nonzero" fill-opacity="1" /><path clip-path="url(#clip480)" d="M2189.48 1451.02 L2207.84 1451.02 L2207.84 1454.96 L2193.76 1454.96 L2193.76 1463.43 Q2194.78 1463.08 2195.8 1462.92 Q2196.82 1462.73 2197.84 1462.73 Q2203.63 1462.73 2207.01 1465.9 Q2210.38 1469.08 2210.38 1474.49 Q2210.38 1480.07 2206.91 1483.17 Q2203.44 1486.25 2197.12 1486.25 Q2194.95 1486.25 2192.68 1485.88 Q2190.43 1485.51 2188.02 1484.77 L2188.02 1480.07 Q2190.11 1481.2 2192.33 1481.76 Q2194.55 1482.32 2197.03 1482.32 Q2201.03 1482.32 2203.37 1480.21 Q2205.71 1478.1 2205.71 1474.49 Q2205.71 1470.88 2203.37 1468.77 Q2201.03 1466.67 2197.03 1466.67 Q2195.15 1466.67 2193.28 1467.08 Q2191.43 1467.5 2189.48 1468.38 L2189.48 1451.02 Z" fill="#000000" fill-rule="nonzero" fill-opacity="1" /><path clip-path="url(#clip480)" d="M1134.04 1520.52 L1174.24 1520.52 L1174.24 1525.93 L1157.37 1525.93 L1157.37 1568.04 L1150.91 1568.04 L1150.91 1525.93 L1134.04 1525.93 L1134.04 1520.52 Z" fill="#000000" fill-rule="nonzero" fill-opacity="1" /><path clip-path="url(#clip480)" d="M1178.19 1532.4 L1184.05 1532.4 L1184.05 1568.04 L1178.19 1568.04 L1178.19 1532.4 M1178.19 1518.52 L1184.05 1518.52 L1184.05 1525.93 L1178.19 1525.93 L1178.19 1518.52 Z" fill="#000000" fill-rule="nonzero" fill-opacity="1" /><path clip-path="url(#clip480)" d="M1224.05 1539.24 Q1226.25 1535.29 1229.31 1533.41 Q1232.36 1531.54 1236.5 1531.54 Q1242.07 1531.54 1245.09 1535.45 Q1248.12 1539.33 1248.12 1546.53 L1248.12 1568.04 L1242.23 1568.04 L1242.23 1546.72 Q1242.23 1541.59 1240.41 1539.11 Q1238.6 1536.63 1234.88 1536.63 Q1230.32 1536.63 1227.68 1539.65 Q1225.04 1542.68 1225.04 1547.9 L1225.04 1568.04 L1219.15 1568.04 L1219.15 1546.72 Q1219.15 1541.56 1217.34 1539.11 Q1215.52 1536.63 1211.74 1536.63 Q1207.25 1536.63 1204.61 1539.68 Q1201.97 1542.71 1201.97 1547.9 L1201.97 1568.04 L1196.08 1568.04 L1196.08 1532.4 L1201.97 1532.4 L1201.97 1537.93 Q1203.97 1534.66 1206.77 1533.1 Q1209.57 1531.54 1213.42 1531.54 Q1217.31 1531.54 1220.01 1533.51 Q1222.75 1535.48 1224.05 1539.24 Z" fill="#000000" fill-rule="nonzero" fill-opacity="1" /><path clip-path="url(#clip480)" d="M1290.29 1548.76 L1290.29 1551.62 L1263.36 1551.62 Q1263.74 1557.67 1266.99 1560.85 Q1270.27 1564 1276.09 1564 Q1279.47 1564 1282.62 1563.17 Q1285.8 1562.35 1288.92 1560.69 L1288.92 1566.23 Q1285.77 1567.57 1282.46 1568.27 Q1279.15 1568.97 1275.74 1568.97 Q1267.21 1568.97 1262.22 1564 Q1257.25 1559.04 1257.25 1550.57 Q1257.25 1541.82 1261.96 1536.69 Q1266.7 1531.54 1274.73 1531.54 Q1281.92 1531.54 1286.09 1536.18 Q1290.29 1540.8 1290.29 1548.76 M1284.43 1547.04 Q1284.37 1542.23 1281.73 1539.37 Q1279.12 1536.5 1274.79 1536.5 Q1269.89 1536.5 1266.93 1539.27 Q1264 1542.04 1263.55 1547.07 L1284.43 1547.04 Z" fill="#000000" fill-rule="nonzero" fill-opacity="1" /><path clip-path="url(#clip480)" d="M1320.88 1520.52 L1327.31 1520.52 L1327.31 1562.63 L1350.45 1562.63 L1350.45 1568.04 L1320.88 1568.04 L1320.88 1520.52 Z" fill="#000000" fill-rule="nonzero" fill-opacity="1" /><path clip-path="url(#clip480)" d="M1373.14 1550.12 Q1366.04 1550.12 1363.3 1551.75 Q1360.57 1553.37 1360.57 1557.29 Q1360.57 1560.4 1362.6 1562.25 Q1364.67 1564.07 1368.21 1564.07 Q1373.08 1564.07 1376 1560.63 Q1378.96 1557.16 1378.96 1551.43 L1378.96 1550.12 L1373.14 1550.12 M1384.82 1547.71 L1384.82 1568.04 L1378.96 1568.04 L1378.96 1562.63 Q1376.96 1565.88 1373.97 1567.44 Q1370.97 1568.97 1366.65 1568.97 Q1361.17 1568.97 1357.93 1565.91 Q1354.71 1562.82 1354.71 1557.67 Q1354.71 1551.65 1358.72 1548.6 Q1362.76 1545.54 1370.75 1545.54 L1378.96 1545.54 L1378.96 1544.97 Q1378.96 1540.93 1376.29 1538.73 Q1373.65 1536.5 1368.84 1536.5 Q1365.79 1536.5 1362.89 1537.23 Q1359.99 1537.97 1357.32 1539.43 L1357.32 1534.02 Q1360.54 1532.78 1363.56 1532.17 Q1366.58 1531.54 1369.45 1531.54 Q1377.18 1531.54 1381 1535.55 Q1384.82 1539.56 1384.82 1547.71 Z" fill="#000000" fill-rule="nonzero" fill-opacity="1" /><path clip-path="url(#clip480)" d="M1420.34 1549.81 Q1420.34 1543.44 1417.7 1539.94 Q1415.09 1536.44 1410.35 1536.44 Q1405.64 1536.44 1402.99 1539.94 Q1400.38 1543.44 1400.38 1549.81 Q1400.38 1556.14 1402.99 1559.64 Q1405.64 1563.14 1410.35 1563.14 Q1415.09 1563.14 1417.7 1559.64 Q1420.34 1556.14 1420.34 1549.81 M1426.2 1563.62 Q1426.2 1572.72 1422.16 1577.15 Q1418.11 1581.6 1409.77 1581.6 Q1406.69 1581.6 1403.95 1581.13 Q1401.21 1580.68 1398.63 1579.72 L1398.63 1574.03 Q1401.21 1575.43 1403.73 1576.1 Q1406.24 1576.76 1408.85 1576.76 Q1414.61 1576.76 1417.48 1573.74 Q1420.34 1570.75 1420.34 1564.67 L1420.34 1561.77 Q1418.53 1564.92 1415.69 1566.48 Q1412.86 1568.04 1408.91 1568.04 Q1402.36 1568.04 1398.35 1563.05 Q1394.34 1558.05 1394.34 1549.81 Q1394.34 1541.53 1398.35 1536.53 Q1402.36 1531.54 1408.91 1531.54 Q1412.86 1531.54 1415.69 1533.1 Q1418.53 1534.66 1420.34 1537.81 L1420.34 1532.4 L1426.2 1532.4 L1426.2 1563.62 Z" fill="#000000" fill-rule="nonzero" fill-opacity="1" /><polyline clip-path="url(#clip480)" style="stroke:#000000; stroke-linecap:round; stroke-linejoin:round; stroke-width:4; stroke-opacity:1; fill:none" points="234.125,1423.18 234.125,47.2441 "/>
<polyline clip-path="url(#clip480)" style="stroke:#000000; stroke-linecap:round; stroke-linejoin:round; stroke-width:4; stroke-opacity:1; fill:none" points="234.125,1423.18 253.023,1423.18 "/>
<polyline clip-path="url(#clip480)" style="stroke:#000000; stroke-linecap:round; stroke-linejoin:round; stroke-width:4; stroke-opacity:1; fill:none" points="234.125,1040.98 253.023,1040.98 "/>
<polyline clip-path="url(#clip480)" style="stroke:#000000; stroke-linecap:round; stroke-linejoin:round; stroke-width:4; stroke-opacity:1; fill:none" points="234.125,658.771 253.023,658.771 "/>
<polyline clip-path="url(#clip480)" style="stroke:#000000; stroke-linecap:round; stroke-linejoin:round; stroke-width:4; stroke-opacity:1; fill:none" points="234.125,276.567 253.023,276.567 "/>
<path clip-path="url(#clip480)" d="M186.181 1408.98 Q182.57 1408.98 180.741 1412.54 Q178.936 1416.08 178.936 1423.21 Q178.936 1430.32 180.741 1433.89 Q182.57 1437.43 186.181 1437.43 Q189.815 1437.43 191.621 1433.89 Q193.45 1430.32 193.45 1423.21 Q193.45 1416.08 191.621 1412.54 Q189.815 1408.98 186.181 1408.98 M186.181 1405.27 Q191.991 1405.27 195.047 1409.88 Q198.125 1414.46 198.125 1423.21 Q198.125 1431.94 195.047 1436.55 Q191.991 1441.13 186.181 1441.13 Q180.371 1441.13 177.292 1436.55 Q174.237 1431.94 174.237 1423.21 Q174.237 1414.46 177.292 1409.88 Q180.371 1405.27 186.181 1405.27 Z" fill="#000000" fill-rule="nonzero" fill-opacity="1" /><path clip-path="url(#clip480)" d="M116.668 1054.32 L124.306 1054.32 L124.306 1027.95 L115.996 1029.62 L115.996 1025.36 L124.26 1023.7 L128.936 1023.7 L128.936 1054.32 L136.575 1054.32 L136.575 1058.26 L116.668 1058.26 L116.668 1054.32 Z" fill="#000000" fill-rule="nonzero" fill-opacity="1" /><path clip-path="url(#clip480)" d="M156.019 1026.77 Q152.408 1026.77 150.579 1030.34 Q148.774 1033.88 148.774 1041.01 Q148.774 1048.12 150.579 1051.68 Q152.408 1055.22 156.019 1055.22 Q159.653 1055.22 161.459 1051.68 Q163.288 1048.12 163.288 1041.01 Q163.288 1033.88 161.459 1030.34 Q159.653 1026.77 156.019 1026.77 M156.019 1023.07 Q161.829 1023.07 164.885 1027.68 Q167.964 1032.26 167.964 1041.01 Q167.964 1049.74 164.885 1054.34 Q161.829 1058.93 156.019 1058.93 Q150.209 1058.93 147.13 1054.34 Q144.075 1049.74 144.075 1041.01 Q144.075 1032.26 147.13 1027.68 Q150.209 1023.07 156.019 1023.07 Z" fill="#000000" fill-rule="nonzero" fill-opacity="1" /><path clip-path="url(#clip480)" d="M186.181 1026.77 Q182.57 1026.77 180.741 1030.34 Q178.936 1033.88 178.936 1041.01 Q178.936 1048.12 180.741 1051.68 Q182.57 1055.22 186.181 1055.22 Q189.815 1055.22 191.621 1051.68 Q193.45 1048.12 193.45 1041.01 Q193.45 1033.88 191.621 1030.34 Q189.815 1026.77 186.181 1026.77 M186.181 1023.07 Q191.991 1023.07 195.047 1027.68 Q198.125 1032.26 198.125 1041.01 Q198.125 1049.74 195.047 1054.34 Q191.991 1058.93 186.181 1058.93 Q180.371 1058.93 177.292 1054.34 Q174.237 1049.74 174.237 1041.01 Q174.237 1032.26 177.292 1027.68 Q180.371 1023.07 186.181 1023.07 Z" fill="#000000" fill-rule="nonzero" fill-opacity="1" /><path clip-path="url(#clip480)" d="M119.885 672.116 L136.204 672.116 L136.204 676.051 L114.26 676.051 L114.26 672.116 Q116.922 669.361 121.505 664.732 Q126.112 660.079 127.292 658.736 Q129.538 656.213 130.417 654.477 Q131.32 652.718 131.32 651.028 Q131.32 648.273 129.376 646.537 Q127.455 644.801 124.353 644.801 Q122.154 644.801 119.7 645.565 Q117.269 646.329 114.492 647.88 L114.492 643.158 Q117.316 642.023 119.769 641.445 Q122.223 640.866 124.26 640.866 Q129.63 640.866 132.825 643.551 Q136.019 646.236 136.019 650.727 Q136.019 652.857 135.209 654.778 Q134.422 656.676 132.316 659.269 Q131.737 659.94 128.635 663.158 Q125.533 666.352 119.885 672.116 Z" fill="#000000" fill-rule="nonzero" fill-opacity="1" /><path clip-path="url(#clip480)" d="M156.019 644.57 Q152.408 644.57 150.579 648.135 Q148.774 651.676 148.774 658.806 Q148.774 665.912 150.579 669.477 Q152.408 673.019 156.019 673.019 Q159.653 673.019 161.459 669.477 Q163.288 665.912 163.288 658.806 Q163.288 651.676 161.459 648.135 Q159.653 644.57 156.019 644.57 M156.019 640.866 Q161.829 640.866 164.885 645.473 Q167.964 650.056 167.964 658.806 Q167.964 667.533 164.885 672.139 Q161.829 676.722 156.019 676.722 Q150.209 676.722 147.13 672.139 Q144.075 667.533 144.075 658.806 Q144.075 650.056 147.13 645.473 Q150.209 640.866 156.019 640.866 Z" fill="#000000" fill-rule="nonzero" fill-opacity="1" /><path clip-path="url(#clip480)" d="M186.181 644.57 Q182.57 644.57 180.741 648.135 Q178.936 651.676 178.936 658.806 Q178.936 665.912 180.741 669.477 Q182.57 673.019 186.181 673.019 Q189.815 673.019 191.621 669.477 Q193.45 665.912 193.45 658.806 Q193.45 651.676 191.621 648.135 Q189.815 644.57 186.181 644.57 M186.181 640.866 Q191.991 640.866 195.047 645.473 Q198.125 650.056 198.125 658.806 Q198.125 667.533 195.047 672.139 Q191.991 676.722 186.181 676.722 Q180.371 676.722 177.292 672.139 Q174.237 667.533 174.237 658.806 Q174.237 650.056 177.292 645.473 Q180.371 640.866 186.181 640.866 Z" fill="#000000" fill-rule="nonzero" fill-opacity="1" /><path clip-path="url(#clip480)" d="M130.024 275.213 Q133.38 275.93 135.255 278.199 Q137.154 280.467 137.154 283.8 Q137.154 288.916 133.635 291.717 Q130.117 294.518 123.635 294.518 Q121.459 294.518 119.144 294.078 Q116.853 293.662 114.399 292.805 L114.399 288.291 Q116.343 289.425 118.658 290.004 Q120.973 290.583 123.496 290.583 Q127.894 290.583 130.186 288.847 Q132.501 287.111 132.501 283.8 Q132.501 280.745 130.348 279.032 Q128.218 277.296 124.399 277.296 L120.371 277.296 L120.371 273.453 L124.584 273.453 Q128.033 273.453 129.862 272.088 Q131.691 270.699 131.691 268.106 Q131.691 265.444 129.792 264.032 Q127.917 262.597 124.399 262.597 Q122.478 262.597 120.279 263.014 Q118.08 263.43 115.441 264.31 L115.441 260.143 Q118.103 259.402 120.418 259.032 Q122.755 258.662 124.816 258.662 Q130.14 258.662 133.242 261.092 Q136.343 263.5 136.343 267.62 Q136.343 270.49 134.7 272.481 Q133.056 274.449 130.024 275.213 Z" fill="#000000" fill-rule="nonzero" fill-opacity="1" /><path clip-path="url(#clip480)" d="M156.019 262.365 Q152.408 262.365 150.579 265.93 Q148.774 269.472 148.774 276.601 Q148.774 283.708 150.579 287.273 Q152.408 290.814 156.019 290.814 Q159.653 290.814 161.459 287.273 Q163.288 283.708 163.288 276.601 Q163.288 269.472 161.459 265.93 Q159.653 262.365 156.019 262.365 M156.019 258.662 Q161.829 258.662 164.885 263.268 Q167.964 267.851 167.964 276.601 Q167.964 285.328 164.885 289.935 Q161.829 294.518 156.019 294.518 Q150.209 294.518 147.13 289.935 Q144.075 285.328 144.075 276.601 Q144.075 267.851 147.13 263.268 Q150.209 258.662 156.019 258.662 Z" fill="#000000" fill-rule="nonzero" fill-opacity="1" /><path clip-path="url(#clip480)" d="M186.181 262.365 Q182.57 262.365 180.741 265.93 Q178.936 269.472 178.936 276.601 Q178.936 283.708 180.741 287.273 Q182.57 290.814 186.181 290.814 Q189.815 290.814 191.621 287.273 Q193.45 283.708 193.45 276.601 Q193.45 269.472 191.621 265.93 Q189.815 262.365 186.181 262.365 M186.181 258.662 Q191.991 258.662 195.047 263.268 Q198.125 267.851 198.125 276.601 Q198.125 285.328 195.047 289.935 Q191.991 294.518 186.181 294.518 Q180.371 294.518 177.292 289.935 Q174.237 285.328 174.237 276.601 Q174.237 267.851 177.292 263.268 Q180.371 258.662 186.181 258.662 Z" fill="#000000" fill-rule="nonzero" fill-opacity="1" /><path clip-path="url(#clip480)" d="M16.4842 899.415 L16.4842 872.106 L21.895 872.106 L21.895 892.986 L35.8996 892.986 L35.8996 874.144 L41.3104 874.144 L41.3104 892.986 L64.0042 892.986 L64.0042 899.415 L16.4842 899.415 Z" fill="#000000" fill-rule="nonzero" fill-opacity="1" /><path clip-path="url(#clip480)" d="M33.8307 846.262 Q33.2578 847.248 33.0032 848.426 Q32.7167 849.572 32.7167 850.972 Q32.7167 855.938 35.9632 858.611 Q39.1779 861.253 45.2253 861.253 L64.0042 861.253 L64.0042 867.141 L28.3562 867.141 L28.3562 861.253 L33.8944 861.253 Q30.6479 859.407 29.0883 856.447 Q27.4968 853.487 27.4968 849.254 Q27.4968 848.649 27.5923 847.917 Q27.656 847.185 27.8151 846.294 L33.8307 846.262 Z" fill="#000000" fill-rule="nonzero" fill-opacity="1" /><path clip-path="url(#clip480)" d="M44.7161 811.059 L47.5806 811.059 L47.5806 837.986 Q53.6281 837.604 56.8109 834.358 Q59.9619 831.08 59.9619 825.255 Q59.9619 821.881 59.1344 818.73 Q58.3069 815.547 56.6518 812.428 L62.1899 812.428 Q63.5267 815.579 64.227 818.889 Q64.9272 822.199 64.9272 825.605 Q64.9272 834.135 59.9619 839.132 Q54.9967 844.097 46.5303 844.097 Q37.7774 844.097 32.6531 839.387 Q27.4968 834.644 27.4968 826.624 Q27.4968 819.43 32.1438 815.261 Q36.7589 811.059 44.7161 811.059 M42.9973 816.916 Q38.1912 816.979 35.3266 819.621 Q32.4621 822.231 32.4621 826.56 Q32.4621 831.461 35.2312 834.422 Q38.0002 837.35 43.0292 837.795 L42.9973 816.916 Z" fill="#000000" fill-rule="nonzero" fill-opacity="1" /><path clip-path="url(#clip480)" d="M46.212 797.946 Q52.6732 797.946 56.3653 795.304 Q60.0256 792.631 60.0256 787.984 Q60.0256 783.337 56.3653 780.663 Q52.6732 777.99 46.212 777.99 Q39.7508 777.99 36.0905 780.663 Q32.3984 783.337 32.3984 787.984 Q32.3984 792.631 36.0905 795.304 Q39.7508 797.946 46.212 797.946 M58.657 777.99 Q61.8398 779.836 63.3994 782.668 Q64.9272 785.469 64.9272 789.416 Q64.9272 795.877 59.771 799.951 Q54.6147 803.993 46.212 803.993 Q37.8093 803.993 32.6531 799.951 Q27.4968 795.877 27.4968 789.416 Q27.4968 785.469 29.0564 782.668 Q30.5842 779.836 33.7671 777.99 L28.3562 777.99 L28.3562 772.133 L77.5631 772.133 L77.5631 777.99 L58.657 777.99 Z" fill="#000000" fill-rule="nonzero" fill-opacity="1" /><path clip-path="url(#clip480)" d="M49.9359 760.675 L28.3562 760.675 L28.3562 754.818 L49.7131 754.818 Q54.7739 754.818 57.3202 752.845 Q59.8346 750.872 59.8346 746.925 Q59.8346 742.182 56.8109 739.445 Q53.7872 736.676 48.5673 736.676 L28.3562 736.676 L28.3562 730.82 L64.0042 730.82 L64.0042 736.676 L58.5296 736.676 Q61.7762 738.809 63.3676 741.641 Q64.9272 744.442 64.9272 748.166 Q64.9272 754.309 61.1078 757.492 Q57.2883 760.675 49.9359 760.675 M27.4968 745.938 L27.4968 745.938 Z" fill="#000000" fill-rule="nonzero" fill-opacity="1" /><path clip-path="url(#clip480)" d="M44.7161 688.265 L47.5806 688.265 L47.5806 715.192 Q53.6281 714.81 56.8109 711.563 Q59.9619 708.285 59.9619 702.46 Q59.9619 699.087 59.1344 695.936 Q58.3069 692.753 56.6518 689.634 L62.1899 689.634 Q63.5267 692.785 64.227 696.095 Q64.9272 699.405 64.9272 702.811 Q64.9272 711.341 59.9619 716.338 Q54.9967 721.303 46.5303 721.303 Q37.7774 721.303 32.6531 716.592 Q27.4968 711.85 27.4968 703.829 Q27.4968 696.636 32.1438 692.466 Q36.7589 688.265 44.7161 688.265 M42.9973 694.121 Q38.1912 694.185 35.3266 696.827 Q32.4621 699.437 32.4621 703.765 Q32.4621 708.667 35.2312 711.627 Q38.0002 714.555 43.0292 715.001 L42.9973 694.121 Z" fill="#000000" fill-rule="nonzero" fill-opacity="1" /><path clip-path="url(#clip480)" d="M42.4881 649.02 L64.0042 649.02 L64.0042 654.877 L42.679 654.877 Q37.6183 654.877 35.1038 656.85 Q32.5894 658.823 32.5894 662.77 Q32.5894 667.513 35.6131 670.25 Q38.6368 672.987 43.8567 672.987 L64.0042 672.987 L64.0042 678.875 L28.3562 678.875 L28.3562 672.987 L33.8944 672.987 Q30.6797 670.887 29.0883 668.054 Q27.4968 665.189 27.4968 661.465 Q27.4968 655.322 31.3163 652.171 Q35.1038 649.02 42.4881 649.02 Z" fill="#000000" fill-rule="nonzero" fill-opacity="1" /><path clip-path="url(#clip480)" d="M29.7248 611.685 L35.1993 611.685 Q33.8307 614.168 33.1623 616.683 Q32.4621 619.165 32.4621 621.711 Q32.4621 627.409 36.0905 630.56 Q39.6872 633.711 46.212 633.711 Q52.7369 633.711 56.3653 630.56 Q59.9619 627.409 59.9619 621.711 Q59.9619 619.165 59.2935 616.683 Q58.5933 614.168 57.2247 611.685 L62.6355 611.685 Q63.7814 614.136 64.3543 616.778 Q64.9272 619.388 64.9272 622.348 Q64.9272 630.401 59.8664 635.143 Q54.8057 639.886 46.212 639.886 Q37.491 639.886 32.4939 635.111 Q27.4968 630.305 27.4968 621.966 Q27.4968 619.261 28.0697 616.683 Q28.6108 614.104 29.7248 611.685 Z" fill="#000000" fill-rule="nonzero" fill-opacity="1" /><path clip-path="url(#clip480)" d="M67.3143 586.668 Q73.68 589.151 75.6216 591.506 Q77.5631 593.861 77.5631 597.808 L77.5631 602.487 L72.6615 602.487 L72.6615 599.05 Q72.6615 596.631 71.5157 595.294 Q70.3699 593.957 66.1048 592.334 L63.4312 591.283 L28.3562 605.702 L28.3562 599.495 L56.238 588.355 L28.3562 577.215 L28.3562 571.009 L67.3143 586.668 Z" fill="#000000" fill-rule="nonzero" fill-opacity="1" /><path clip-path="url(#clip482)" d="M350.654 1419.36 L350.654 1423.18 L387.626 1423.18 L387.626 1419.36 L350.654 1419.36 L350.654 1419.36  Z" fill="#009af9" fill-rule="evenodd" fill-opacity="1"/>
<polyline clip-path="url(#clip482)" style="stroke:#000000; stroke-linecap:round; stroke-linejoin:round; stroke-width:4; stroke-opacity:1; fill:none" points="350.654,1419.36 350.654,1423.18 387.626,1423.18 387.626,1419.36 350.654,1419.36 "/>
<path clip-path="url(#clip482)" d="M387.626 1411.71 L387.626 1423.18 L424.598 1423.18 L424.598 1411.71 L387.626 1411.71 L387.626 1411.71  Z" fill="#009af9" fill-rule="evenodd" fill-opacity="1"/>
<polyline clip-path="url(#clip482)" style="stroke:#000000; stroke-linecap:round; stroke-linejoin:round; stroke-width:4; stroke-opacity:1; fill:none" points="387.626,1411.71 387.626,1423.18 424.598,1423.18 424.598,1411.71 387.626,1411.71 "/>
<path clip-path="url(#clip482)" d="M424.598 1419.36 L424.598 1423.18 L461.57 1423.18 L461.57 1419.36 L424.598 1419.36 L424.598 1419.36  Z" fill="#009af9" fill-rule="evenodd" fill-opacity="1"/>
<polyline clip-path="url(#clip482)" style="stroke:#000000; stroke-linecap:round; stroke-linejoin:round; stroke-width:4; stroke-opacity:1; fill:none" points="424.598,1419.36 424.598,1423.18 461.57,1423.18 461.57,1419.36 424.598,1419.36 "/>
<path clip-path="url(#clip482)" d="M461.57 1423.18 L461.57 1423.18 L498.542 1423.18 L498.542 1423.18 L461.57 1423.18 L461.57 1423.18  Z" fill="#009af9" fill-rule="evenodd" fill-opacity="1"/>
<polyline clip-path="url(#clip482)" style="stroke:#000000; stroke-linecap:round; stroke-linejoin:round; stroke-width:4; stroke-opacity:1; fill:none" points="461.57,1423.18 461.57,1423.18 498.542,1423.18 461.57,1423.18 "/>
<path clip-path="url(#clip482)" d="M498.542 1423.18 L498.542 1423.18 L535.514 1423.18 L535.514 1423.18 L498.542 1423.18 L498.542 1423.18  Z" fill="#009af9" fill-rule="evenodd" fill-opacity="1"/>
<polyline clip-path="url(#clip482)" style="stroke:#000000; stroke-linecap:round; stroke-linejoin:round; stroke-width:4; stroke-opacity:1; fill:none" points="498.542,1423.18 498.542,1423.18 535.514,1423.18 498.542,1423.18 "/>
<path clip-path="url(#clip482)" d="M535.514 1423.18 L535.514 1423.18 L572.486 1423.18 L572.486 1423.18 L535.514 1423.18 L535.514 1423.18  Z" fill="#009af9" fill-rule="evenodd" fill-opacity="1"/>
<polyline clip-path="url(#clip482)" style="stroke:#000000; stroke-linecap:round; stroke-linejoin:round; stroke-width:4; stroke-opacity:1; fill:none" points="535.514,1423.18 535.514,1423.18 572.486,1423.18 535.514,1423.18 "/>
<path clip-path="url(#clip482)" d="M572.486 1423.18 L572.486 1423.18 L609.458 1423.18 L609.458 1423.18 L572.486 1423.18 L572.486 1423.18  Z" fill="#009af9" fill-rule="evenodd" fill-opacity="1"/>
<polyline clip-path="url(#clip482)" style="stroke:#000000; stroke-linecap:round; stroke-linejoin:round; stroke-width:4; stroke-opacity:1; fill:none" points="572.486,1423.18 572.486,1423.18 609.458,1423.18 572.486,1423.18 "/>
<path clip-path="url(#clip482)" d="M609.458 1423.18 L609.458 1423.18 L646.43 1423.18 L646.43 1423.18 L609.458 1423.18 L609.458 1423.18  Z" fill="#009af9" fill-rule="evenodd" fill-opacity="1"/>
<polyline clip-path="url(#clip482)" style="stroke:#000000; stroke-linecap:round; stroke-linejoin:round; stroke-width:4; stroke-opacity:1; fill:none" points="609.458,1423.18 609.458,1423.18 646.43,1423.18 609.458,1423.18 "/>
<path clip-path="url(#clip482)" d="M646.43 1423.18 L646.43 1423.18 L683.402 1423.18 L683.402 1423.18 L646.43 1423.18 L646.43 1423.18  Z" fill="#009af9" fill-rule="evenodd" fill-opacity="1"/>
<polyline clip-path="url(#clip482)" style="stroke:#000000; stroke-linecap:round; stroke-linejoin:round; stroke-width:4; stroke-opacity:1; fill:none" points="646.43,1423.18 646.43,1423.18 683.402,1423.18 646.43,1423.18 "/>
<path clip-path="url(#clip482)" d="M683.402 1423.18 L683.402 1423.18 L720.374 1423.18 L720.374 1423.18 L683.402 1423.18 L683.402 1423.18  Z" fill="#009af9" fill-rule="evenodd" fill-opacity="1"/>
<polyline clip-path="url(#clip482)" style="stroke:#000000; stroke-linecap:round; stroke-linejoin:round; stroke-width:4; stroke-opacity:1; fill:none" points="683.402,1423.18 683.402,1423.18 720.374,1423.18 683.402,1423.18 "/>
<path clip-path="url(#clip482)" d="M720.374 1423.18 L720.374 1423.18 L757.346 1423.18 L757.346 1423.18 L720.374 1423.18 L720.374 1423.18  Z" fill="#009af9" fill-rule="evenodd" fill-opacity="1"/>
<polyline clip-path="url(#clip482)" style="stroke:#000000; stroke-linecap:round; stroke-linejoin:round; stroke-width:4; stroke-opacity:1; fill:none" points="720.374,1423.18 720.374,1423.18 757.346,1423.18 720.374,1423.18 "/>
<path clip-path="url(#clip482)" d="M757.346 1423.18 L757.346 1423.18 L794.318 1423.18 L794.318 1423.18 L757.346 1423.18 L757.346 1423.18  Z" fill="#009af9" fill-rule="evenodd" fill-opacity="1"/>
<polyline clip-path="url(#clip482)" style="stroke:#000000; stroke-linecap:round; stroke-linejoin:round; stroke-width:4; stroke-opacity:1; fill:none" points="757.346,1423.18 757.346,1423.18 794.318,1423.18 757.346,1423.18 "/>
<path clip-path="url(#clip482)" d="M794.318 1423.18 L794.318 1423.18 L831.29 1423.18 L831.29 1423.18 L794.318 1423.18 L794.318 1423.18  Z" fill="#009af9" fill-rule="evenodd" fill-opacity="1"/>
<polyline clip-path="url(#clip482)" style="stroke:#000000; stroke-linecap:round; stroke-linejoin:round; stroke-width:4; stroke-opacity:1; fill:none" points="794.318,1423.18 794.318,1423.18 831.29,1423.18 794.318,1423.18 "/>
<path clip-path="url(#clip482)" d="M831.29 1423.18 L831.29 1423.18 L868.262 1423.18 L868.262 1423.18 L831.29 1423.18 L831.29 1423.18  Z" fill="#009af9" fill-rule="evenodd" fill-opacity="1"/>
<polyline clip-path="url(#clip482)" style="stroke:#000000; stroke-linecap:round; stroke-linejoin:round; stroke-width:4; stroke-opacity:1; fill:none" points="831.29,1423.18 831.29,1423.18 868.262,1423.18 831.29,1423.18 "/>
<path clip-path="url(#clip482)" d="M868.262 1423.18 L868.262 1423.18 L905.234 1423.18 L905.234 1423.18 L868.262 1423.18 L868.262 1423.18  Z" fill="#009af9" fill-rule="evenodd" fill-opacity="1"/>
<polyline clip-path="url(#clip482)" style="stroke:#000000; stroke-linecap:round; stroke-linejoin:round; stroke-width:4; stroke-opacity:1; fill:none" points="868.262,1423.18 868.262,1423.18 905.234,1423.18 868.262,1423.18 "/>
<path clip-path="url(#clip482)" d="M905.234 1423.18 L905.234 1423.18 L942.206 1423.18 L942.206 1423.18 L905.234 1423.18 L905.234 1423.18  Z" fill="#009af9" fill-rule="evenodd" fill-opacity="1"/>
<polyline clip-path="url(#clip482)" style="stroke:#000000; stroke-linecap:round; stroke-linejoin:round; stroke-width:4; stroke-opacity:1; fill:none" points="905.234,1423.18 905.234,1423.18 942.206,1423.18 905.234,1423.18 "/>
<path clip-path="url(#clip482)" d="M942.206 1423.18 L942.206 1423.18 L979.178 1423.18 L979.178 1423.18 L942.206 1423.18 L942.206 1423.18  Z" fill="#009af9" fill-rule="evenodd" fill-opacity="1"/>
<polyline clip-path="url(#clip482)" style="stroke:#000000; stroke-linecap:round; stroke-linejoin:round; stroke-width:4; stroke-opacity:1; fill:none" points="942.206,1423.18 942.206,1423.18 979.178,1423.18 942.206,1423.18 "/>
<path clip-path="url(#clip482)" d="M979.178 1423.18 L979.178 1423.18 L1016.15 1423.18 L1016.15 1423.18 L979.178 1423.18 L979.178 1423.18  Z" fill="#009af9" fill-rule="evenodd" fill-opacity="1"/>
<polyline clip-path="url(#clip482)" style="stroke:#000000; stroke-linecap:round; stroke-linejoin:round; stroke-width:4; stroke-opacity:1; fill:none" points="979.178,1423.18 979.178,1423.18 1016.15,1423.18 979.178,1423.18 "/>
<path clip-path="url(#clip482)" d="M1016.15 1423.18 L1016.15 1423.18 L1053.12 1423.18 L1053.12 1423.18 L1016.15 1423.18 L1016.15 1423.18  Z" fill="#009af9" fill-rule="evenodd" fill-opacity="1"/>
<polyline clip-path="url(#clip482)" style="stroke:#000000; stroke-linecap:round; stroke-linejoin:round; stroke-width:4; stroke-opacity:1; fill:none" points="1016.15,1423.18 1016.15,1423.18 1053.12,1423.18 1016.15,1423.18 "/>
<path clip-path="url(#clip482)" d="M1053.12 1423.18 L1053.12 1423.18 L1090.09 1423.18 L1090.09 1423.18 L1053.12 1423.18 L1053.12 1423.18  Z" fill="#009af9" fill-rule="evenodd" fill-opacity="1"/>
<polyline clip-path="url(#clip482)" style="stroke:#000000; stroke-linecap:round; stroke-linejoin:round; stroke-width:4; stroke-opacity:1; fill:none" points="1053.12,1423.18 1053.12,1423.18 1090.09,1423.18 1053.12,1423.18 "/>
<path clip-path="url(#clip482)" d="M1090.09 1423.18 L1090.09 1423.18 L1127.07 1423.18 L1127.07 1423.18 L1090.09 1423.18 L1090.09 1423.18  Z" fill="#009af9" fill-rule="evenodd" fill-opacity="1"/>
<polyline clip-path="url(#clip482)" style="stroke:#000000; stroke-linecap:round; stroke-linejoin:round; stroke-width:4; stroke-opacity:1; fill:none" points="1090.09,1423.18 1090.09,1423.18 1127.07,1423.18 1090.09,1423.18 "/>
<path clip-path="url(#clip482)" d="M1127.07 1423.18 L1127.07 1423.18 L1164.04 1423.18 L1164.04 1423.18 L1127.07 1423.18 L1127.07 1423.18  Z" fill="#009af9" fill-rule="evenodd" fill-opacity="1"/>
<polyline clip-path="url(#clip482)" style="stroke:#000000; stroke-linecap:round; stroke-linejoin:round; stroke-width:4; stroke-opacity:1; fill:none" points="1127.07,1423.18 1127.07,1423.18 1164.04,1423.18 1127.07,1423.18 "/>
<path clip-path="url(#clip482)" d="M1164.04 1423.18 L1164.04 1423.18 L1201.01 1423.18 L1201.01 1423.18 L1164.04 1423.18 L1164.04 1423.18  Z" fill="#009af9" fill-rule="evenodd" fill-opacity="1"/>
<polyline clip-path="url(#clip482)" style="stroke:#000000; stroke-linecap:round; stroke-linejoin:round; stroke-width:4; stroke-opacity:1; fill:none" points="1164.04,1423.18 1164.04,1423.18 1201.01,1423.18 1164.04,1423.18 "/>
<path clip-path="url(#clip482)" d="M1201.01 1423.18 L1201.01 1423.18 L1237.98 1423.18 L1237.98 1423.18 L1201.01 1423.18 L1201.01 1423.18  Z" fill="#009af9" fill-rule="evenodd" fill-opacity="1"/>
<polyline clip-path="url(#clip482)" style="stroke:#000000; stroke-linecap:round; stroke-linejoin:round; stroke-width:4; stroke-opacity:1; fill:none" points="1201.01,1423.18 1201.01,1423.18 1237.98,1423.18 1201.01,1423.18 "/>
<path clip-path="url(#clip482)" d="M1237.98 1423.18 L1237.98 1423.18 L1274.95 1423.18 L1274.95 1423.18 L1237.98 1423.18 L1237.98 1423.18  Z" fill="#009af9" fill-rule="evenodd" fill-opacity="1"/>
<polyline clip-path="url(#clip482)" style="stroke:#000000; stroke-linecap:round; stroke-linejoin:round; stroke-width:4; stroke-opacity:1; fill:none" points="1237.98,1423.18 1237.98,1423.18 1274.95,1423.18 1237.98,1423.18 "/>
<path clip-path="url(#clip482)" d="M1274.95 1423.18 L1274.95 1423.18 L1311.93 1423.18 L1311.93 1423.18 L1274.95 1423.18 L1274.95 1423.18  Z" fill="#009af9" fill-rule="evenodd" fill-opacity="1"/>
<polyline clip-path="url(#clip482)" style="stroke:#000000; stroke-linecap:round; stroke-linejoin:round; stroke-width:4; stroke-opacity:1; fill:none" points="1274.95,1423.18 1274.95,1423.18 1311.93,1423.18 1274.95,1423.18 "/>
<path clip-path="url(#clip482)" d="M1311.93 1423.18 L1311.93 1423.18 L1348.9 1423.18 L1348.9 1423.18 L1311.93 1423.18 L1311.93 1423.18  Z" fill="#009af9" fill-rule="evenodd" fill-opacity="1"/>
<polyline clip-path="url(#clip482)" style="stroke:#000000; stroke-linecap:round; stroke-linejoin:round; stroke-width:4; stroke-opacity:1; fill:none" points="1311.93,1423.18 1311.93,1423.18 1348.9,1423.18 1311.93,1423.18 "/>
<path clip-path="url(#clip482)" d="M1348.9 1423.18 L1348.9 1423.18 L1385.87 1423.18 L1385.87 1423.18 L1348.9 1423.18 L1348.9 1423.18  Z" fill="#009af9" fill-rule="evenodd" fill-opacity="1"/>
<polyline clip-path="url(#clip482)" style="stroke:#000000; stroke-linecap:round; stroke-linejoin:round; stroke-width:4; stroke-opacity:1; fill:none" points="1348.9,1423.18 1348.9,1423.18 1385.87,1423.18 1348.9,1423.18 "/>
<path clip-path="url(#clip482)" d="M1385.87 1423.18 L1385.87 1423.18 L1422.84 1423.18 L1422.84 1423.18 L1385.87 1423.18 L1385.87 1423.18  Z" fill="#009af9" fill-rule="evenodd" fill-opacity="1"/>
<polyline clip-path="url(#clip482)" style="stroke:#000000; stroke-linecap:round; stroke-linejoin:round; stroke-width:4; stroke-opacity:1; fill:none" points="1385.87,1423.18 1385.87,1423.18 1422.84,1423.18 1385.87,1423.18 "/>
<path clip-path="url(#clip482)" d="M1422.84 1423.18 L1422.84 1423.18 L1459.81 1423.18 L1459.81 1423.18 L1422.84 1423.18 L1422.84 1423.18  Z" fill="#009af9" fill-rule="evenodd" fill-opacity="1"/>
<polyline clip-path="url(#clip482)" style="stroke:#000000; stroke-linecap:round; stroke-linejoin:round; stroke-width:4; stroke-opacity:1; fill:none" points="1422.84,1423.18 1422.84,1423.18 1459.81,1423.18 1422.84,1423.18 "/>
<path clip-path="url(#clip482)" d="M1459.81 1423.18 L1459.81 1423.18 L1496.79 1423.18 L1496.79 1423.18 L1459.81 1423.18 L1459.81 1423.18  Z" fill="#009af9" fill-rule="evenodd" fill-opacity="1"/>
<polyline clip-path="url(#clip482)" style="stroke:#000000; stroke-linecap:round; stroke-linejoin:round; stroke-width:4; stroke-opacity:1; fill:none" points="1459.81,1423.18 1459.81,1423.18 1496.79,1423.18 1459.81,1423.18 "/>
<path clip-path="url(#clip482)" d="M1496.79 1423.18 L1496.79 1423.18 L1533.76 1423.18 L1533.76 1423.18 L1496.79 1423.18 L1496.79 1423.18  Z" fill="#009af9" fill-rule="evenodd" fill-opacity="1"/>
<polyline clip-path="url(#clip482)" style="stroke:#000000; stroke-linecap:round; stroke-linejoin:round; stroke-width:4; stroke-opacity:1; fill:none" points="1496.79,1423.18 1496.79,1423.18 1533.76,1423.18 1496.79,1423.18 "/>
<path clip-path="url(#clip482)" d="M1533.76 1423.18 L1533.76 1423.18 L1570.73 1423.18 L1570.73 1423.18 L1533.76 1423.18 L1533.76 1423.18  Z" fill="#009af9" fill-rule="evenodd" fill-opacity="1"/>
<polyline clip-path="url(#clip482)" style="stroke:#000000; stroke-linecap:round; stroke-linejoin:round; stroke-width:4; stroke-opacity:1; fill:none" points="1533.76,1423.18 1533.76,1423.18 1570.73,1423.18 1533.76,1423.18 "/>
<path clip-path="url(#clip482)" d="M1570.73 1423.18 L1570.73 1423.18 L1607.7 1423.18 L1607.7 1423.18 L1570.73 1423.18 L1570.73 1423.18  Z" fill="#009af9" fill-rule="evenodd" fill-opacity="1"/>
<polyline clip-path="url(#clip482)" style="stroke:#000000; stroke-linecap:round; stroke-linejoin:round; stroke-width:4; stroke-opacity:1; fill:none" points="1570.73,1423.18 1570.73,1423.18 1607.7,1423.18 1570.73,1423.18 "/>
<path clip-path="url(#clip482)" d="M1607.7 1423.18 L1607.7 1423.18 L1644.67 1423.18 L1644.67 1423.18 L1607.7 1423.18 L1607.7 1423.18  Z" fill="#009af9" fill-rule="evenodd" fill-opacity="1"/>
<polyline clip-path="url(#clip482)" style="stroke:#000000; stroke-linecap:round; stroke-linejoin:round; stroke-width:4; stroke-opacity:1; fill:none" points="1607.7,1423.18 1607.7,1423.18 1644.67,1423.18 1607.7,1423.18 "/>
<path clip-path="url(#clip482)" d="M1644.67 1423.18 L1644.67 1423.18 L1681.65 1423.18 L1681.65 1423.18 L1644.67 1423.18 L1644.67 1423.18  Z" fill="#009af9" fill-rule="evenodd" fill-opacity="1"/>
<polyline clip-path="url(#clip482)" style="stroke:#000000; stroke-linecap:round; stroke-linejoin:round; stroke-width:4; stroke-opacity:1; fill:none" points="1644.67,1423.18 1644.67,1423.18 1681.65,1423.18 1644.67,1423.18 "/>
<path clip-path="url(#clip482)" d="M1681.65 1423.18 L1681.65 1423.18 L1718.62 1423.18 L1718.62 1423.18 L1681.65 1423.18 L1681.65 1423.18  Z" fill="#009af9" fill-rule="evenodd" fill-opacity="1"/>
<polyline clip-path="url(#clip482)" style="stroke:#000000; stroke-linecap:round; stroke-linejoin:round; stroke-width:4; stroke-opacity:1; fill:none" points="1681.65,1423.18 1681.65,1423.18 1718.62,1423.18 1681.65,1423.18 "/>
<path clip-path="url(#clip482)" d="M1718.62 1423.18 L1718.62 1423.18 L1755.59 1423.18 L1755.59 1423.18 L1718.62 1423.18 L1718.62 1423.18  Z" fill="#009af9" fill-rule="evenodd" fill-opacity="1"/>
<polyline clip-path="url(#clip482)" style="stroke:#000000; stroke-linecap:round; stroke-linejoin:round; stroke-width:4; stroke-opacity:1; fill:none" points="1718.62,1423.18 1718.62,1423.18 1755.59,1423.18 1718.62,1423.18 "/>
<path clip-path="url(#clip482)" d="M1755.59 1423.18 L1755.59 1423.18 L1792.56 1423.18 L1792.56 1423.18 L1755.59 1423.18 L1755.59 1423.18  Z" fill="#009af9" fill-rule="evenodd" fill-opacity="1"/>
<polyline clip-path="url(#clip482)" style="stroke:#000000; stroke-linecap:round; stroke-linejoin:round; stroke-width:4; stroke-opacity:1; fill:none" points="1755.59,1423.18 1755.59,1423.18 1792.56,1423.18 1755.59,1423.18 "/>
<path clip-path="url(#clip482)" d="M1792.56 1423.18 L1792.56 1423.18 L1829.54 1423.18 L1829.54 1423.18 L1792.56 1423.18 L1792.56 1423.18  Z" fill="#009af9" fill-rule="evenodd" fill-opacity="1"/>
<polyline clip-path="url(#clip482)" style="stroke:#000000; stroke-linecap:round; stroke-linejoin:round; stroke-width:4; stroke-opacity:1; fill:none" points="1792.56,1423.18 1792.56,1423.18 1829.54,1423.18 1792.56,1423.18 "/>
<path clip-path="url(#clip482)" d="M1829.54 1423.18 L1829.54 1423.18 L1866.51 1423.18 L1866.51 1423.18 L1829.54 1423.18 L1829.54 1423.18  Z" fill="#009af9" fill-rule="evenodd" fill-opacity="1"/>
<polyline clip-path="url(#clip482)" style="stroke:#000000; stroke-linecap:round; stroke-linejoin:round; stroke-width:4; stroke-opacity:1; fill:none" points="1829.54,1423.18 1829.54,1423.18 1866.51,1423.18 1829.54,1423.18 "/>
<path clip-path="url(#clip482)" d="M1866.51 1423.18 L1866.51 1423.18 L1903.48 1423.18 L1903.48 1423.18 L1866.51 1423.18 L1866.51 1423.18  Z" fill="#009af9" fill-rule="evenodd" fill-opacity="1"/>
<polyline clip-path="url(#clip482)" style="stroke:#000000; stroke-linecap:round; stroke-linejoin:round; stroke-width:4; stroke-opacity:1; fill:none" points="1866.51,1423.18 1866.51,1423.18 1903.48,1423.18 1866.51,1423.18 "/>
<path clip-path="url(#clip482)" d="M1903.48 1423.18 L1903.48 1423.18 L1940.45 1423.18 L1940.45 1423.18 L1903.48 1423.18 L1903.48 1423.18  Z" fill="#009af9" fill-rule="evenodd" fill-opacity="1"/>
<polyline clip-path="url(#clip482)" style="stroke:#000000; stroke-linecap:round; stroke-linejoin:round; stroke-width:4; stroke-opacity:1; fill:none" points="1903.48,1423.18 1903.48,1423.18 1940.45,1423.18 1903.48,1423.18 "/>
<path clip-path="url(#clip482)" d="M1940.45 1415.54 L1940.45 1423.18 L1977.42 1423.18 L1977.42 1415.54 L1940.45 1415.54 L1940.45 1415.54  Z" fill="#009af9" fill-rule="evenodd" fill-opacity="1"/>
<polyline clip-path="url(#clip482)" style="stroke:#000000; stroke-linecap:round; stroke-linejoin:round; stroke-width:4; stroke-opacity:1; fill:none" points="1940.45,1415.54 1940.45,1423.18 1977.42,1423.18 1977.42,1415.54 1940.45,1415.54 "/>
<path clip-path="url(#clip482)" d="M1977.42 1312.34 L1977.42 1423.18 L2014.4 1423.18 L2014.4 1312.34 L1977.42 1312.34 L1977.42 1312.34  Z" fill="#009af9" fill-rule="evenodd" fill-opacity="1"/>
<polyline clip-path="url(#clip482)" style="stroke:#000000; stroke-linecap:round; stroke-linejoin:round; stroke-width:4; stroke-opacity:1; fill:none" points="1977.42,1312.34 1977.42,1423.18 2014.4,1423.18 2014.4,1312.34 1977.42,1312.34 "/>
<path clip-path="url(#clip482)" d="M2014.4 723.746 L2014.4 1423.18 L2051.37 1423.18 L2051.37 723.746 L2014.4 723.746 L2014.4 723.746  Z" fill="#009af9" fill-rule="evenodd" fill-opacity="1"/>
<polyline clip-path="url(#clip482)" style="stroke:#000000; stroke-linecap:round; stroke-linejoin:round; stroke-width:4; stroke-opacity:1; fill:none" points="2014.4,723.746 2014.4,1423.18 2051.37,1423.18 2051.37,723.746 2014.4,723.746 "/>
<path clip-path="url(#clip482)" d="M2051.37 47.2441 L2051.37 1423.18 L2088.34 1423.18 L2088.34 47.2441 L2051.37 47.2441 L2051.37 47.2441  Z" fill="#009af9" fill-rule="evenodd" fill-opacity="1"/>
<polyline clip-path="url(#clip482)" style="stroke:#000000; stroke-linecap:round; stroke-linejoin:round; stroke-width:4; stroke-opacity:1; fill:none" points="2051.37,47.2441 2051.37,1423.18 2088.34,1423.18 2088.34,47.2441 2051.37,47.2441 "/>
<path clip-path="url(#clip482)" d="M2088.34 261.279 L2088.34 1423.18 L2125.31 1423.18 L2125.31 261.279 L2088.34 261.279 L2088.34 261.279  Z" fill="#009af9" fill-rule="evenodd" fill-opacity="1"/>
<polyline clip-path="url(#clip482)" style="stroke:#000000; stroke-linecap:round; stroke-linejoin:round; stroke-width:4; stroke-opacity:1; fill:none" points="2088.34,261.279 2088.34,1423.18 2125.31,1423.18 2125.31,261.279 2088.34,261.279 "/>
<path clip-path="url(#clip482)" d="M2125.31 1033.33 L2125.31 1423.18 L2162.28 1423.18 L2162.28 1033.33 L2125.31 1033.33 L2125.31 1033.33  Z" fill="#009af9" fill-rule="evenodd" fill-opacity="1"/>
<polyline clip-path="url(#clip482)" style="stroke:#000000; stroke-linecap:round; stroke-linejoin:round; stroke-width:4; stroke-opacity:1; fill:none" points="2125.31,1033.33 2125.31,1423.18 2162.28,1423.18 2162.28,1033.33 2125.31,1033.33 "/>
<path clip-path="url(#clip482)" d="M2162.28 1369.67 L2162.28 1423.18 L2199.26 1423.18 L2199.26 1369.67 L2162.28 1369.67 L2162.28 1369.67  Z" fill="#009af9" fill-rule="evenodd" fill-opacity="1"/>
<polyline clip-path="url(#clip482)" style="stroke:#000000; stroke-linecap:round; stroke-linejoin:round; stroke-width:4; stroke-opacity:1; fill:none" points="2162.28,1369.67 2162.28,1423.18 2199.26,1423.18 2199.26,1369.67 2162.28,1369.67 "/>
<path clip-path="url(#clip482)" d="M2199.26 1419.36 L2199.26 1423.18 L2236.23 1423.18 L2236.23 1419.36 L2199.26 1419.36 L2199.26 1419.36  Z" fill="#009af9" fill-rule="evenodd" fill-opacity="1"/>
<polyline clip-path="url(#clip482)" style="stroke:#000000; stroke-linecap:round; stroke-linejoin:round; stroke-width:4; stroke-opacity:1; fill:none" points="2199.26,1419.36 2199.26,1423.18 2236.23,1423.18 2236.23,1419.36 2199.26,1419.36 "/>
<circle clip-path="url(#clip482)" style="fill:#009af9; stroke:none; fill-opacity:0" cx="369.14" cy="1419.36" r="2"/>
<circle clip-path="url(#clip482)" style="fill:#009af9; stroke:none; fill-opacity:0" cx="406.112" cy="1411.71" r="2"/>
<circle clip-path="url(#clip482)" style="fill:#009af9; stroke:none; fill-opacity:0" cx="443.084" cy="1419.36" r="2"/>
<circle clip-path="url(#clip482)" style="fill:#009af9; stroke:none; fill-opacity:0" cx="480.056" cy="1423.18" r="2"/>
<circle clip-path="url(#clip482)" style="fill:#009af9; stroke:none; fill-opacity:0" cx="517.028" cy="1423.18" r="2"/>
<circle clip-path="url(#clip482)" style="fill:#009af9; stroke:none; fill-opacity:0" cx="554" cy="1423.18" r="2"/>
<circle clip-path="url(#clip482)" style="fill:#009af9; stroke:none; fill-opacity:0" cx="590.972" cy="1423.18" r="2"/>
<circle clip-path="url(#clip482)" style="fill:#009af9; stroke:none; fill-opacity:0" cx="627.944" cy="1423.18" r="2"/>
<circle clip-path="url(#clip482)" style="fill:#009af9; stroke:none; fill-opacity:0" cx="664.916" cy="1423.18" r="2"/>
<circle clip-path="url(#clip482)" style="fill:#009af9; stroke:none; fill-opacity:0" cx="701.888" cy="1423.18" r="2"/>
<circle clip-path="url(#clip482)" style="fill:#009af9; stroke:none; fill-opacity:0" cx="738.86" cy="1423.18" r="2"/>
<circle clip-path="url(#clip482)" style="fill:#009af9; stroke:none; fill-opacity:0" cx="775.832" cy="1423.18" r="2"/>
<circle clip-path="url(#clip482)" style="fill:#009af9; stroke:none; fill-opacity:0" cx="812.804" cy="1423.18" r="2"/>
<circle clip-path="url(#clip482)" style="fill:#009af9; stroke:none; fill-opacity:0" cx="849.776" cy="1423.18" r="2"/>
<circle clip-path="url(#clip482)" style="fill:#009af9; stroke:none; fill-opacity:0" cx="886.748" cy="1423.18" r="2"/>
<circle clip-path="url(#clip482)" style="fill:#009af9; stroke:none; fill-opacity:0" cx="923.72" cy="1423.18" r="2"/>
<circle clip-path="url(#clip482)" style="fill:#009af9; stroke:none; fill-opacity:0" cx="960.692" cy="1423.18" r="2"/>
<circle clip-path="url(#clip482)" style="fill:#009af9; stroke:none; fill-opacity:0" cx="997.664" cy="1423.18" r="2"/>
<circle clip-path="url(#clip482)" style="fill:#009af9; stroke:none; fill-opacity:0" cx="1034.64" cy="1423.18" r="2"/>
<circle clip-path="url(#clip482)" style="fill:#009af9; stroke:none; fill-opacity:0" cx="1071.61" cy="1423.18" r="2"/>
<circle clip-path="url(#clip482)" style="fill:#009af9; stroke:none; fill-opacity:0" cx="1108.58" cy="1423.18" r="2"/>
<circle clip-path="url(#clip482)" style="fill:#009af9; stroke:none; fill-opacity:0" cx="1145.55" cy="1423.18" r="2"/>
<circle clip-path="url(#clip482)" style="fill:#009af9; stroke:none; fill-opacity:0" cx="1182.52" cy="1423.18" r="2"/>
<circle clip-path="url(#clip482)" style="fill:#009af9; stroke:none; fill-opacity:0" cx="1219.5" cy="1423.18" r="2"/>
<circle clip-path="url(#clip482)" style="fill:#009af9; stroke:none; fill-opacity:0" cx="1256.47" cy="1423.18" r="2"/>
<circle clip-path="url(#clip482)" style="fill:#009af9; stroke:none; fill-opacity:0" cx="1293.44" cy="1423.18" r="2"/>
<circle clip-path="url(#clip482)" style="fill:#009af9; stroke:none; fill-opacity:0" cx="1330.41" cy="1423.18" r="2"/>
<circle clip-path="url(#clip482)" style="fill:#009af9; stroke:none; fill-opacity:0" cx="1367.38" cy="1423.18" r="2"/>
<circle clip-path="url(#clip482)" style="fill:#009af9; stroke:none; fill-opacity:0" cx="1404.36" cy="1423.18" r="2"/>
<circle clip-path="url(#clip482)" style="fill:#009af9; stroke:none; fill-opacity:0" cx="1441.33" cy="1423.18" r="2"/>
<circle clip-path="url(#clip482)" style="fill:#009af9; stroke:none; fill-opacity:0" cx="1478.3" cy="1423.18" r="2"/>
<circle clip-path="url(#clip482)" style="fill:#009af9; stroke:none; fill-opacity:0" cx="1515.27" cy="1423.18" r="2"/>
<circle clip-path="url(#clip482)" style="fill:#009af9; stroke:none; fill-opacity:0" cx="1552.24" cy="1423.18" r="2"/>
<circle clip-path="url(#clip482)" style="fill:#009af9; stroke:none; fill-opacity:0" cx="1589.22" cy="1423.18" r="2"/>
<circle clip-path="url(#clip482)" style="fill:#009af9; stroke:none; fill-opacity:0" cx="1626.19" cy="1423.18" r="2"/>
<circle clip-path="url(#clip482)" style="fill:#009af9; stroke:none; fill-opacity:0" cx="1663.16" cy="1423.18" r="2"/>
<circle clip-path="url(#clip482)" style="fill:#009af9; stroke:none; fill-opacity:0" cx="1700.13" cy="1423.18" r="2"/>
<circle clip-path="url(#clip482)" style="fill:#009af9; stroke:none; fill-opacity:0" cx="1737.11" cy="1423.18" r="2"/>
<circle clip-path="url(#clip482)" style="fill:#009af9; stroke:none; fill-opacity:0" cx="1774.08" cy="1423.18" r="2"/>
<circle clip-path="url(#clip482)" style="fill:#009af9; stroke:none; fill-opacity:0" cx="1811.05" cy="1423.18" r="2"/>
<circle clip-path="url(#clip482)" style="fill:#009af9; stroke:none; fill-opacity:0" cx="1848.02" cy="1423.18" r="2"/>
<circle clip-path="url(#clip482)" style="fill:#009af9; stroke:none; fill-opacity:0" cx="1884.99" cy="1423.18" r="2"/>
<circle clip-path="url(#clip482)" style="fill:#009af9; stroke:none; fill-opacity:0" cx="1921.97" cy="1423.18" r="2"/>
<circle clip-path="url(#clip482)" style="fill:#009af9; stroke:none; fill-opacity:0" cx="1958.94" cy="1415.54" r="2"/>
<circle clip-path="url(#clip482)" style="fill:#009af9; stroke:none; fill-opacity:0" cx="1995.91" cy="1312.34" r="2"/>
<circle clip-path="url(#clip482)" style="fill:#009af9; stroke:none; fill-opacity:0" cx="2032.88" cy="723.746" r="2"/>
<circle clip-path="url(#clip482)" style="fill:#009af9; stroke:none; fill-opacity:0" cx="2069.85" cy="47.2441" r="2"/>
<circle clip-path="url(#clip482)" style="fill:#009af9; stroke:none; fill-opacity:0" cx="2106.83" cy="261.279" r="2"/>
<circle clip-path="url(#clip482)" style="fill:#009af9; stroke:none; fill-opacity:0" cx="2143.8" cy="1033.33" r="2"/>
<circle clip-path="url(#clip482)" style="fill:#009af9; stroke:none; fill-opacity:0" cx="2180.77" cy="1369.67" r="2"/>
<circle clip-path="url(#clip482)" style="fill:#009af9; stroke:none; fill-opacity:0" cx="2217.74" cy="1419.36" r="2"/>
<polyline clip-path="url(#clip482)" style="stroke:#e26f46; stroke-linecap:round; stroke-linejoin:round; stroke-width:4; stroke-opacity:1; fill:none" points="2081.38,2799.12 2081.38,-1328.69 "/>
<path clip-path="url(#clip480)" d="M304.746 248.629 L1068.3 248.629 L1068.3 93.1086 L304.746 93.1086  Z" fill="#ffffff" fill-rule="evenodd" fill-opacity="1"/>
<polyline clip-path="url(#clip480)" style="stroke:#000000; stroke-linecap:round; stroke-linejoin:round; stroke-width:4; stroke-opacity:1; fill:none" points="304.746,248.629 1068.3,248.629 1068.3,93.1086 304.746,93.1086 304.746,248.629 "/>
<path clip-path="url(#clip480)" d="M328.287 165.685 L469.529 165.685 L469.529 124.213 L328.287 124.213 L328.287 165.685  Z" fill="#009af9" fill-rule="evenodd" fill-opacity="1"/>
<polyline clip-path="url(#clip480)" style="stroke:#000000; stroke-linecap:round; stroke-linejoin:round; stroke-width:4; stroke-opacity:1; fill:none" points="328.287,165.685 469.529,165.685 469.529,124.213 328.287,124.213 328.287,165.685 "/>
<path clip-path="url(#clip480)" d="M493.069 127.669 L522.305 127.669 L522.305 131.604 L510.037 131.604 L510.037 162.229 L505.338 162.229 L505.338 131.604 L493.069 131.604 L493.069 127.669 Z" fill="#000000" fill-rule="nonzero" fill-opacity="1" /><path clip-path="url(#clip480)" d="M525.175 136.303 L529.435 136.303 L529.435 162.229 L525.175 162.229 L525.175 136.303 M525.175 126.21 L529.435 126.21 L529.435 131.604 L525.175 131.604 L525.175 126.21 Z" fill="#000000" fill-rule="nonzero" fill-opacity="1" /><path clip-path="url(#clip480)" d="M558.532 141.28 Q560.129 138.409 562.351 137.044 Q564.573 135.678 567.583 135.678 Q571.634 135.678 573.833 138.525 Q576.032 141.349 576.032 146.581 L576.032 162.229 L571.749 162.229 L571.749 146.719 Q571.749 142.993 570.43 141.187 Q569.11 139.382 566.402 139.382 Q563.092 139.382 561.171 141.581 Q559.249 143.78 559.249 147.576 L559.249 162.229 L554.967 162.229 L554.967 146.719 Q554.967 142.969 553.648 141.187 Q552.328 139.382 549.573 139.382 Q546.31 139.382 544.388 141.604 Q542.467 143.803 542.467 147.576 L542.467 162.229 L538.185 162.229 L538.185 136.303 L542.467 136.303 L542.467 140.331 Q543.925 137.946 545.962 136.812 Q547.999 135.678 550.8 135.678 Q553.624 135.678 555.592 137.113 Q557.583 138.548 558.532 141.28 Z" fill="#000000" fill-rule="nonzero" fill-opacity="1" /><path clip-path="url(#clip480)" d="M606.703 148.201 L606.703 150.284 L587.12 150.284 Q587.397 154.682 589.758 156.997 Q592.143 159.289 596.379 159.289 Q598.832 159.289 601.124 158.687 Q603.439 158.085 605.707 156.881 L605.707 160.909 Q603.416 161.881 601.008 162.391 Q598.601 162.9 596.124 162.9 Q589.921 162.9 586.286 159.289 Q582.675 155.678 582.675 149.52 Q582.675 143.155 586.101 139.428 Q589.55 135.678 595.383 135.678 Q600.615 135.678 603.647 139.057 Q606.703 142.414 606.703 148.201 M602.444 146.951 Q602.397 143.456 600.476 141.372 Q598.578 139.289 595.43 139.289 Q591.865 139.289 589.712 141.303 Q587.583 143.317 587.258 146.974 L602.444 146.951 Z" fill="#000000" fill-rule="nonzero" fill-opacity="1" /><path clip-path="url(#clip480)" d="M628.948 127.669 L633.624 127.669 L633.624 158.293 L650.453 158.293 L650.453 162.229 L628.948 162.229 L628.948 127.669 Z" fill="#000000" fill-rule="nonzero" fill-opacity="1" /><path clip-path="url(#clip480)" d="M666.957 149.196 Q661.795 149.196 659.804 150.377 Q657.814 151.557 657.814 154.405 Q657.814 156.673 659.295 158.016 Q660.8 159.335 663.369 159.335 Q666.911 159.335 669.04 156.835 Q671.193 154.312 671.193 150.145 L671.193 149.196 L666.957 149.196 M675.452 147.437 L675.452 162.229 L671.193 162.229 L671.193 158.293 Q669.735 160.655 667.559 161.789 Q665.383 162.9 662.235 162.9 Q658.253 162.9 655.892 160.678 Q653.554 158.432 653.554 154.682 Q653.554 150.307 656.471 148.085 Q659.411 145.863 665.221 145.863 L671.193 145.863 L671.193 145.446 Q671.193 142.507 669.249 140.909 Q667.327 139.289 663.832 139.289 Q661.61 139.289 659.503 139.821 Q657.397 140.354 655.453 141.419 L655.453 137.483 Q657.791 136.581 659.99 136.141 Q662.189 135.678 664.272 135.678 Q669.897 135.678 672.675 138.594 Q675.452 141.511 675.452 147.437 Z" fill="#000000" fill-rule="nonzero" fill-opacity="1" /><path clip-path="url(#clip480)" d="M701.286 148.965 Q701.286 144.335 699.364 141.789 Q697.466 139.243 694.017 139.243 Q690.591 139.243 688.67 141.789 Q686.772 144.335 686.772 148.965 Q686.772 153.571 688.67 156.118 Q690.591 158.664 694.017 158.664 Q697.466 158.664 699.364 156.118 Q701.286 153.571 701.286 148.965 M705.545 159.011 Q705.545 165.631 702.605 168.849 Q699.665 172.09 693.601 172.09 Q691.355 172.09 689.364 171.742 Q687.374 171.418 685.499 170.724 L685.499 166.58 Q687.374 167.599 689.202 168.085 Q691.031 168.571 692.929 168.571 Q697.119 168.571 699.202 166.372 Q701.286 164.196 701.286 159.775 L701.286 157.668 Q699.966 159.96 697.906 161.094 Q695.846 162.229 692.976 162.229 Q688.207 162.229 685.29 158.594 Q682.374 154.96 682.374 148.965 Q682.374 142.946 685.29 139.312 Q688.207 135.678 692.976 135.678 Q695.846 135.678 697.906 136.812 Q699.966 137.946 701.286 140.238 L701.286 136.303 L705.545 136.303 L705.545 159.011 Z" fill="#000000" fill-rule="nonzero" fill-opacity="1" /><path clip-path="url(#clip480)" d="M729.573 127.669 L734.248 127.669 L734.248 162.229 L729.573 162.229 L729.573 127.669 Z" fill="#000000" fill-rule="nonzero" fill-opacity="1" /><path clip-path="url(#clip480)" d="M769.433 130.331 L769.433 135.261 Q767.072 133.062 764.387 131.974 Q761.725 130.886 758.716 130.886 Q752.79 130.886 749.642 134.52 Q746.494 138.132 746.494 144.983 Q746.494 151.812 749.642 155.446 Q752.79 159.057 758.716 159.057 Q761.725 159.057 764.387 157.969 Q767.072 156.881 769.433 154.682 L769.433 159.567 Q766.98 161.233 764.225 162.067 Q761.494 162.9 758.438 162.9 Q750.591 162.9 746.077 158.108 Q741.563 153.293 741.563 144.983 Q741.563 136.65 746.077 131.858 Q750.591 127.044 758.438 127.044 Q761.54 127.044 764.271 127.877 Q767.026 128.687 769.433 130.331 Z" fill="#000000" fill-rule="nonzero" fill-opacity="1" /><path clip-path="url(#clip480)" d="M802.535 130.331 L802.535 135.261 Q800.174 133.062 797.489 131.974 Q794.827 130.886 791.818 130.886 Q785.892 130.886 782.744 134.52 Q779.595 138.132 779.595 144.983 Q779.595 151.812 782.744 155.446 Q785.892 159.057 791.818 159.057 Q794.827 159.057 797.489 157.969 Q800.174 156.881 802.535 154.682 L802.535 159.567 Q800.081 161.233 797.327 162.067 Q794.595 162.9 791.54 162.9 Q783.693 162.9 779.179 158.108 Q774.665 153.293 774.665 144.983 Q774.665 136.65 779.179 131.858 Q783.693 127.044 791.54 127.044 Q794.642 127.044 797.373 127.877 Q800.128 128.687 802.535 130.331 Z" fill="#000000" fill-rule="nonzero" fill-opacity="1" /><path clip-path="url(#clip480)" d="M809.757 127.669 L829.618 127.669 L829.618 131.604 L814.433 131.604 L814.433 141.789 L828.137 141.789 L828.137 145.724 L814.433 145.724 L814.433 162.229 L809.757 162.229 L809.757 127.669 Z" fill="#000000" fill-rule="nonzero" fill-opacity="1" /><path clip-path="url(#clip480)" d="M877.975 130.331 L877.975 135.261 Q875.613 133.062 872.928 131.974 Q870.266 130.886 867.257 130.886 Q861.331 130.886 858.183 134.52 Q855.035 138.132 855.035 144.983 Q855.035 151.812 858.183 155.446 Q861.331 159.057 867.257 159.057 Q870.266 159.057 872.928 157.969 Q875.613 156.881 877.975 154.682 L877.975 159.567 Q875.521 161.233 872.766 162.067 Q870.035 162.9 866.979 162.9 Q859.132 162.9 854.618 158.108 Q850.104 153.293 850.104 144.983 Q850.104 136.65 854.618 131.858 Q859.132 127.044 866.979 127.044 Q870.081 127.044 872.813 127.877 Q875.567 128.687 877.975 130.331 Z" fill="#000000" fill-rule="nonzero" fill-opacity="1" /><path clip-path="url(#clip480)" d="M907.187 148.201 L907.187 150.284 L887.604 150.284 Q887.882 154.682 890.243 156.997 Q892.627 159.289 896.863 159.289 Q899.317 159.289 901.609 158.687 Q903.923 158.085 906.192 156.881 L906.192 160.909 Q903.9 161.881 901.493 162.391 Q899.086 162.9 896.609 162.9 Q890.405 162.9 886.771 159.289 Q883.16 155.678 883.16 149.52 Q883.16 143.155 886.586 139.428 Q890.035 135.678 895.868 135.678 Q901.099 135.678 904.132 139.057 Q907.187 142.414 907.187 148.201 M902.928 146.951 Q902.882 143.456 900.961 141.372 Q899.062 139.289 895.914 139.289 Q892.349 139.289 890.197 141.303 Q888.067 143.317 887.743 146.974 L902.928 146.951 Z" fill="#000000" fill-rule="nonzero" fill-opacity="1" /><path clip-path="url(#clip480)" d="M935.729 146.581 L935.729 162.229 L931.47 162.229 L931.47 146.719 Q931.47 143.039 930.034 141.21 Q928.599 139.382 925.729 139.382 Q922.28 139.382 920.289 141.581 Q918.298 143.78 918.298 147.576 L918.298 162.229 L914.016 162.229 L914.016 136.303 L918.298 136.303 L918.298 140.331 Q919.826 137.993 921.886 136.835 Q923.97 135.678 926.678 135.678 Q931.146 135.678 933.437 138.456 Q935.729 141.21 935.729 146.581 Z" fill="#000000" fill-rule="nonzero" fill-opacity="1" /><path clip-path="url(#clip480)" d="M948.437 128.942 L948.437 136.303 L957.21 136.303 L957.21 139.613 L948.437 139.613 L948.437 153.687 Q948.437 156.858 949.294 157.761 Q950.173 158.664 952.835 158.664 L957.21 158.664 L957.21 162.229 L952.835 162.229 Q947.905 162.229 946.03 160.4 Q944.155 158.548 944.155 153.687 L944.155 139.613 L941.03 139.613 L941.03 136.303 L944.155 136.303 L944.155 128.942 L948.437 128.942 Z" fill="#000000" fill-rule="nonzero" fill-opacity="1" /><path clip-path="url(#clip480)" d="M977.835 140.284 Q977.118 139.868 976.261 139.682 Q975.428 139.474 974.409 139.474 Q970.798 139.474 968.854 141.835 Q966.932 144.173 966.932 148.571 L966.932 162.229 L962.65 162.229 L962.65 136.303 L966.932 136.303 L966.932 140.331 Q968.275 137.969 970.428 136.835 Q972.58 135.678 975.659 135.678 Q976.099 135.678 976.631 135.747 Q977.164 135.794 977.812 135.909 L977.835 140.284 Z" fill="#000000" fill-rule="nonzero" fill-opacity="1" /><path clip-path="url(#clip480)" d="M991.307 139.289 Q987.881 139.289 985.891 141.974 Q983.9 144.636 983.9 149.289 Q983.9 153.942 985.867 156.627 Q987.858 159.289 991.307 159.289 Q994.71 159.289 996.701 156.604 Q998.691 153.918 998.691 149.289 Q998.691 144.682 996.701 141.997 Q994.71 139.289 991.307 139.289 M991.307 135.678 Q996.863 135.678 1000.03 139.289 Q1003.21 142.9 1003.21 149.289 Q1003.21 155.655 1000.03 159.289 Q996.863 162.9 991.307 162.9 Q985.729 162.9 982.557 159.289 Q979.409 155.655 979.409 149.289 Q979.409 142.9 982.557 139.289 Q985.729 135.678 991.307 135.678 Z" fill="#000000" fill-rule="nonzero" fill-opacity="1" /><path clip-path="url(#clip480)" d="M1010.27 136.303 L1014.52 136.303 L1014.52 162.229 L1010.27 162.229 L1010.27 136.303 M1010.27 126.21 L1014.52 126.21 L1014.52 131.604 L1010.27 131.604 L1010.27 126.21 Z" fill="#000000" fill-rule="nonzero" fill-opacity="1" /><path clip-path="url(#clip480)" d="M1040.5 140.238 L1040.5 126.21 L1044.76 126.21 L1044.76 162.229 L1040.5 162.229 L1040.5 158.34 Q1039.15 160.655 1037.09 161.789 Q1035.06 162.9 1032.19 162.9 Q1027.49 162.9 1024.52 159.15 Q1021.58 155.4 1021.58 149.289 Q1021.58 143.178 1024.52 139.428 Q1027.49 135.678 1032.19 135.678 Q1035.06 135.678 1037.09 136.812 Q1039.15 137.923 1040.5 140.238 M1025.98 149.289 Q1025.98 153.988 1027.9 156.673 Q1029.85 159.335 1033.23 159.335 Q1036.61 159.335 1038.55 156.673 Q1040.5 153.988 1040.5 149.289 Q1040.5 144.59 1038.55 141.928 Q1036.61 139.243 1033.23 139.243 Q1029.85 139.243 1027.9 141.928 Q1025.98 144.59 1025.98 149.289 Z" fill="#000000" fill-rule="nonzero" fill-opacity="1" /><polyline clip-path="url(#clip480)" style="stroke:#e26f46; stroke-linecap:round; stroke-linejoin:round; stroke-width:4; stroke-opacity:1; fill:none" points="328.287,196.789 469.529,196.789 "/>
<path clip-path="url(#clip480)" d="M493.069 179.509 L497.745 179.509 L497.745 210.133 L514.574 210.133 L514.574 214.069 L493.069 214.069 L493.069 179.509 Z" fill="#000000" fill-rule="nonzero" fill-opacity="1" /><path clip-path="url(#clip480)" d="M531.078 201.036 Q525.916 201.036 523.925 202.217 Q521.935 203.397 521.935 206.245 Q521.935 208.513 523.416 209.856 Q524.921 211.175 527.49 211.175 Q531.032 211.175 533.162 208.675 Q535.314 206.152 535.314 201.985 L535.314 201.036 L531.078 201.036 M539.574 199.277 L539.574 214.069 L535.314 214.069 L535.314 210.133 Q533.856 212.495 531.68 213.629 Q529.504 214.74 526.356 214.74 Q522.375 214.74 520.013 212.518 Q517.676 210.272 517.676 206.522 Q517.676 202.147 520.592 199.925 Q523.532 197.703 529.342 197.703 L535.314 197.703 L535.314 197.286 Q535.314 194.347 533.37 192.749 Q531.449 191.129 527.953 191.129 Q525.731 191.129 523.625 191.661 Q521.518 192.194 519.574 193.259 L519.574 189.323 Q521.912 188.421 524.111 187.981 Q526.31 187.518 528.393 187.518 Q534.018 187.518 536.796 190.434 Q539.574 193.351 539.574 199.277 Z" fill="#000000" fill-rule="nonzero" fill-opacity="1" /><path clip-path="url(#clip480)" d="M565.407 200.805 Q565.407 196.175 563.485 193.629 Q561.587 191.083 558.138 191.083 Q554.712 191.083 552.791 193.629 Q550.893 196.175 550.893 200.805 Q550.893 205.411 552.791 207.958 Q554.712 210.504 558.138 210.504 Q561.587 210.504 563.485 207.958 Q565.407 205.411 565.407 200.805 M569.666 210.851 Q569.666 217.471 566.726 220.689 Q563.786 223.93 557.722 223.93 Q555.476 223.93 553.486 223.582 Q551.495 223.258 549.62 222.564 L549.62 218.42 Q551.495 219.439 553.323 219.925 Q555.152 220.411 557.05 220.411 Q561.24 220.411 563.323 218.212 Q565.407 216.036 565.407 211.615 L565.407 209.508 Q564.087 211.8 562.027 212.934 Q559.967 214.069 557.097 214.069 Q552.328 214.069 549.411 210.434 Q546.495 206.8 546.495 200.805 Q546.495 194.786 549.411 191.152 Q552.328 187.518 557.097 187.518 Q559.967 187.518 562.027 188.652 Q564.087 189.786 565.407 192.078 L565.407 188.143 L569.666 188.143 L569.666 210.851 Z" fill="#000000" fill-rule="nonzero" fill-opacity="1" /><path clip-path="url(#clip480)" d="M612.166 189.138 L612.166 193.12 Q610.36 192.124 608.532 191.638 Q606.726 191.129 604.874 191.129 Q600.731 191.129 598.439 193.768 Q596.147 196.384 596.147 201.129 Q596.147 205.874 598.439 208.513 Q600.731 211.129 604.874 211.129 Q606.726 211.129 608.532 210.643 Q610.36 210.133 612.166 209.138 L612.166 213.073 Q610.383 213.907 608.462 214.323 Q606.564 214.74 604.411 214.74 Q598.555 214.74 595.106 211.059 Q591.657 207.379 591.657 201.129 Q591.657 194.786 595.129 191.152 Q598.624 187.518 604.689 187.518 Q606.657 187.518 608.532 187.935 Q610.407 188.328 612.166 189.138 Z" fill="#000000" fill-rule="nonzero" fill-opacity="1" /><path clip-path="url(#clip480)" d="M641.749 200.041 L641.749 202.124 L622.166 202.124 Q622.443 206.522 624.805 208.837 Q627.189 211.129 631.425 211.129 Q633.879 211.129 636.17 210.527 Q638.485 209.925 640.754 208.721 L640.754 212.749 Q638.462 213.721 636.055 214.231 Q633.647 214.74 631.17 214.74 Q624.967 214.74 621.332 211.129 Q617.721 207.518 617.721 201.36 Q617.721 194.995 621.147 191.268 Q624.596 187.518 630.43 187.518 Q635.661 187.518 638.693 190.897 Q641.749 194.254 641.749 200.041 M637.49 198.791 Q637.443 195.296 635.522 193.212 Q633.624 191.129 630.476 191.129 Q626.911 191.129 624.758 193.143 Q622.629 195.157 622.305 198.814 L637.49 198.791 Z" fill="#000000" fill-rule="nonzero" fill-opacity="1" /><path clip-path="url(#clip480)" d="M670.29 198.421 L670.29 214.069 L666.031 214.069 L666.031 198.559 Q666.031 194.879 664.596 193.05 Q663.161 191.222 660.29 191.222 Q656.841 191.222 654.851 193.421 Q652.86 195.62 652.86 199.416 L652.86 214.069 L648.578 214.069 L648.578 188.143 L652.86 188.143 L652.86 192.171 Q654.388 189.833 656.448 188.675 Q658.531 187.518 661.24 187.518 Q665.707 187.518 667.999 190.296 Q670.29 193.05 670.29 198.421 Z" fill="#000000" fill-rule="nonzero" fill-opacity="1" /><path clip-path="url(#clip480)" d="M682.999 180.782 L682.999 188.143 L691.772 188.143 L691.772 191.453 L682.999 191.453 L682.999 205.527 Q682.999 208.698 683.855 209.601 Q684.735 210.504 687.397 210.504 L691.772 210.504 L691.772 214.069 L687.397 214.069 Q682.466 214.069 680.591 212.24 Q678.716 210.388 678.716 205.527 L678.716 191.453 L675.591 191.453 L675.591 188.143 L678.716 188.143 L678.716 180.782 L682.999 180.782 Z" fill="#000000" fill-rule="nonzero" fill-opacity="1" /><path clip-path="url(#clip480)" d="M712.397 192.124 Q711.679 191.708 710.823 191.522 Q709.989 191.314 708.971 191.314 Q705.36 191.314 703.415 193.675 Q701.494 196.013 701.494 200.411 L701.494 214.069 L697.212 214.069 L697.212 188.143 L701.494 188.143 L701.494 192.171 Q702.837 189.809 704.989 188.675 Q707.142 187.518 710.221 187.518 Q710.661 187.518 711.193 187.587 Q711.725 187.634 712.374 187.749 L712.397 192.124 Z" fill="#000000" fill-rule="nonzero" fill-opacity="1" /><path clip-path="url(#clip480)" d="M725.869 191.129 Q722.443 191.129 720.452 193.814 Q718.461 196.476 718.461 201.129 Q718.461 205.782 720.429 208.467 Q722.42 211.129 725.869 211.129 Q729.272 211.129 731.262 208.444 Q733.253 205.758 733.253 201.129 Q733.253 196.522 731.262 193.837 Q729.272 191.129 725.869 191.129 M725.869 187.518 Q731.424 187.518 734.596 191.129 Q737.767 194.74 737.767 201.129 Q737.767 207.495 734.596 211.129 Q731.424 214.74 725.869 214.74 Q720.29 214.74 717.119 211.129 Q713.971 207.495 713.971 201.129 Q713.971 194.74 717.119 191.129 Q720.29 187.518 725.869 187.518 Z" fill="#000000" fill-rule="nonzero" fill-opacity="1" /><path clip-path="url(#clip480)" d="M744.827 188.143 L749.086 188.143 L749.086 214.069 L744.827 214.069 L744.827 188.143 M744.827 178.05 L749.086 178.05 L749.086 183.444 L744.827 183.444 L744.827 178.05 Z" fill="#000000" fill-rule="nonzero" fill-opacity="1" /><path clip-path="url(#clip480)" d="M775.058 192.078 L775.058 178.05 L779.318 178.05 L779.318 214.069 L775.058 214.069 L775.058 210.18 Q773.716 212.495 771.656 213.629 Q769.619 214.74 766.748 214.74 Q762.049 214.74 759.086 210.99 Q756.146 207.24 756.146 201.129 Q756.146 195.018 759.086 191.268 Q762.049 187.518 766.748 187.518 Q769.619 187.518 771.656 188.652 Q773.716 189.763 775.058 192.078 M760.545 201.129 Q760.545 205.828 762.466 208.513 Q764.41 211.175 767.79 211.175 Q771.17 211.175 773.114 208.513 Q775.058 205.828 775.058 201.129 Q775.058 196.43 773.114 193.768 Q771.17 191.083 767.79 191.083 Q764.41 191.083 762.466 193.768 Q760.545 196.43 760.545 201.129 Z" fill="#000000" fill-rule="nonzero" fill-opacity="1" /></svg>
